<svg width="387" height="380" viewBox="0 0 387 380" fill="none" xmlns="http://www.w3.org/2000/svg">
<path d="M271.265 367.204L353.761 298.046C369.831 284.575 367.475 259.194 349.2 248.911L170.683 148.456C159.825 142.346 146.322 143.583 136.755 151.562L47.5098 225.998C31.0081 239.762 33.9031 265.902 53.0165 275.721L238.283 370.898C249.02 376.414 262.015 374.958 271.265 367.204Z" fill="#C0D1F7"/>
<path d="M199.402 155.459L199.402 158.303L198.11 160.102" fill="#4964C5"/>
<path d="M147.88 120.348L197.955 155.169C199.402 156.155 199.867 158.303 198.988 159.986C198.73 160.508 198.317 160.914 197.852 161.204L121.887 209.431C119.717 210.824 117.081 210.766 114.962 209.373L65.1463 176.468C61.5289 173.102 61.7873 166.834 65.198 166.602L140.646 120.232C142.868 118.781 145.658 118.839 147.88 120.348Z" fill="#4964C5"/>
<path d="M147.88 117.969L197.955 152.789C199.402 153.776 199.867 155.923 198.988 157.606C198.73 158.129 198.317 158.535 197.852 158.825L121.887 207.052C119.717 208.445 117.081 208.387 114.962 206.994L65.1463 174.088C63.2859 172.869 62.7175 170.2 63.8027 168.169C64.1644 167.53 64.6295 167.008 65.198 166.602L140.697 117.852C142.868 116.402 145.658 116.402 147.88 117.969Z" fill="white"/>
<path d="M145.813 113.21C145.813 113.21 125.039 37.8805 125.143 37.8805C125.246 37.8805 124.471 34.5145 120.75 36.4296L41.0134 89.1833C41.0134 89.1833 37.1377 90.9243 37.9128 94.9867C38.6879 99.0492 58.2217 168.691 58.2217 168.691C59.0485 170.026 60.5988 170.664 61.994 170.142C64.4228 169.271 143.953 117.388 143.953 117.388C143.953 117.388 146.588 116.286 145.813 113.21Z" fill="#2E3192"/>
<path d="M123.851 43.3358L42.1503 96.8439L59.1002 160.682L141.834 108.799L123.851 43.3358Z" fill="#4964C5"/>
<path d="M150.929 125.977L169.223 138.803C170.256 139.557 170.566 141.066 169.895 142.227C169.688 142.575 169.43 142.865 169.119 143.04L103.439 185.115C101.423 186.392 98.9945 186.392 96.9791 185.057C92.7416 182.271 85.5069 177.338 81.011 174.262C79.7708 173.392 79.3574 171.535 80.1325 170.142C80.3392 169.736 80.701 169.387 81.0627 169.097C94.3436 160.392 137.7 132.129 147.209 125.919C148.397 125.165 149.844 125.165 150.929 125.977Z" fill="#4964C5"/>
<path d="M149.948 160.682L127.003 175.191C125.918 175.887 125.505 177.454 126.125 178.673C126.331 179.079 126.59 179.427 126.951 179.66L140.439 188.539C141.369 189.177 142.558 189.177 143.488 188.539L167.001 173.508C167.931 172.927 168.241 171.593 167.724 170.548C167.569 170.2 167.311 169.968 167.001 169.736L152.945 160.682C152.015 160.102 150.878 160.102 149.948 160.682Z" fill="#4964C5"/>
<path opacity="0.1" d="M150.929 125.977L169.223 138.803C170.256 139.557 170.566 141.066 169.895 142.227C169.688 142.575 169.43 142.865 169.119 143.04L103.439 185.115C101.423 186.392 98.9945 186.392 96.9791 185.057C92.7416 182.271 85.5069 177.338 81.011 174.262C79.7708 173.392 79.3574 171.535 80.1325 170.142C80.3392 169.736 80.701 169.387 81.0627 169.097C94.3436 160.392 137.7 132.129 147.209 125.919C148.397 125.165 149.844 125.165 150.929 125.977Z" fill="#2E3192"/>
<path opacity="0.1" d="M149.948 160.682L127.003 175.191C125.918 175.887 125.505 177.454 126.125 178.673C126.331 179.079 126.59 179.427 126.951 179.66L140.439 188.539C141.369 189.177 142.558 189.177 143.488 188.539L167.001 173.508C167.931 172.927 168.241 171.593 167.724 170.548C167.569 170.2 167.311 169.968 167.001 169.736L152.945 160.682C152.015 160.102 150.878 160.102 149.948 160.682Z" fill="#2E3192"/>
<path d="M118.993 67.2461L64.4746 101.893C63.9061 102.241 63.5444 102.938 63.5444 103.692C63.5444 104.853 64.3712 105.781 65.4047 105.781C65.7148 105.781 66.0248 105.665 66.3349 105.491L120.854 71.0764C121.422 70.7282 121.784 70.0318 121.784 69.2773L121.784 69.0452C121.784 67.8845 120.957 66.9559 119.923 66.9559C119.613 66.9559 119.303 67.072 118.993 67.2461Z" fill="#368F99"/>
<path d="M170.308 164.396L141.473 145.709C131.034 140.196 129.639 123.25 129.639 123.25L129.639 89.6475C129.639 82.1611 123.334 73.5719 116.668 72.2371C115.273 71.9469 112.379 71.4827 111.035 72.3532L68.557 99.2813C87.9357 101.138 87.4706 119.071 87.4706 119.071C87.4706 119.071 87.4706 152.383 87.7807 154.879C88.6592 162.655 92.9483 169.387 99.2012 172.811L127.572 191.557L170.308 164.396Z" fill="#FCEE21"/>
<path d="M93.0517 130.852L108.141 120.986L110.26 119.593C110.622 119.361 110.725 118.839 110.518 118.491C110.312 118.085 109.847 117.969 109.537 118.201L94.447 128.067L92.3283 129.459C92.0182 129.75 91.9149 130.214 92.1732 130.62C92.3799 130.968 92.7417 131.084 93.0517 130.852Z" fill="#F15A24"/>
<path d="M93.0517 134.915L108.141 125.049L110.26 123.656C110.622 123.424 110.725 122.901 110.518 122.553C110.312 122.205 109.847 122.031 109.536 122.263L94.447 132.129L92.3282 133.522C91.9665 133.754 91.8631 134.276 92.0698 134.625C92.2765 134.973 92.6899 135.147 93.0517 134.915Z" fill="#F15A24"/>
<path d="M93.0517 138.977L108.141 129.111L110.26 127.718C110.622 127.486 110.725 126.964 110.518 126.616C110.312 126.268 109.847 126.093 109.536 126.326L94.447 136.191L92.3282 137.584C91.9665 137.816 91.8631 138.339 92.0698 138.687C92.2765 139.035 92.6899 139.209 93.0517 138.977Z" fill="#F15A24"/>
<path d="M93.0517 142.982L108.141 133.116L110.26 131.723C110.622 131.491 110.673 130.968 110.467 130.562C110.26 130.214 109.847 130.098 109.536 130.272L94.447 140.138L92.3282 141.531C91.9665 141.763 91.8631 142.285 92.0698 142.633C92.2765 142.982 92.6899 143.214 93.0517 142.982Z" fill="#F15A24"/>
<path d="M124.9 121.698C126.443 116.735 125.465 111.839 122.717 110.762C119.968 109.685 116.49 112.834 114.948 117.797C113.406 122.76 114.383 127.656 117.132 128.733C119.88 129.81 123.358 126.661 124.9 121.698Z" fill="white"/>
<path d="M119.923 119.768L119.923 109.437C119.923 109.437 124.781 107.58 126.228 115.357L119.923 119.768Z" fill="#2E3192"/>
<path d="M119.923 119.768L124.471 124.526C124.471 124.526 126.59 122.669 126.28 115.357L119.923 119.768Z" fill="#FF9F9F"/>
<path d="M127.106 180.472L131.137 183.722L157.906 167.24L144.263 157.548L145.658 166.137L133.359 165.441L133.721 174.436L126.383 174.785L127.106 180.472Z" fill="#FBB03B"/>
<path d="M126.796 180.588L126.021 174.378L133.514 174.204L132.998 164.861L144.832 166.312L143.953 157.606L144.573 157.548L145.555 167.124L133.669 165.673L134.186 174.901L126.745 175.133L127.417 180.472L126.796 180.588Z" fill="#2E3192"/>
<path d="M133.721 175.365C134.492 175.365 135.116 174.949 135.116 174.436C135.116 173.924 134.492 173.508 133.721 173.508C132.951 173.508 132.326 173.924 132.326 174.436C132.326 174.949 132.951 175.365 133.721 175.365Z" fill="#2E3192"/>
<path d="M133.359 166.37C134.13 166.37 134.755 165.954 134.755 165.441C134.755 164.928 134.13 164.512 133.359 164.512C132.589 164.512 131.964 164.928 131.964 165.441C131.964 165.954 132.589 166.37 133.359 166.37Z" fill="#2E3192"/>
<path d="M144.935 167.298C145.706 167.298 146.33 166.882 146.33 166.37C146.33 165.857 145.706 165.441 144.935 165.441C144.164 165.441 143.54 165.857 143.54 166.37C143.54 166.882 144.164 167.298 144.935 167.298Z" fill="#2E3192"/>
<path d="M143.953 158.651C144.724 158.651 145.348 158.235 145.348 157.722C145.348 157.21 144.724 156.794 143.953 156.794C143.182 156.794 142.558 157.21 142.558 157.722C142.558 158.235 143.182 158.651 143.953 158.651Z" fill="#2E3192"/>
<path d="M127.985 186.508L138.992 179.543L156.355 168.517L160.386 165.963C160.645 165.789 160.696 165.499 160.541 165.209C160.386 164.919 160.128 164.861 159.869 165.035L148.862 171.999L131.499 183.026L127.468 185.579C127.21 185.753 127.158 186.043 127.313 186.334C127.468 186.624 127.727 186.682 127.985 186.508Z" fill="#2E3192"/>
<path d="M127.158 181.575C127.929 181.575 128.553 181.159 128.553 180.646C128.553 180.133 127.929 179.718 127.158 179.718C126.388 179.718 125.763 180.133 125.763 180.646C125.763 181.159 126.388 181.575 127.158 181.575Z" fill="#2E3192"/>
<path d="M100.803 163.178L111.81 170.49L113.361 171.535C114.446 172.231 115.428 170.374 114.342 169.678L103.335 162.365L101.785 161.321C100.7 160.566 99.7179 162.423 100.803 163.178Z" fill="#2E3192"/>
<path d="M108.555 162.829L116.151 167.878L117.236 168.575C118.321 169.271 119.303 167.414 118.218 166.718L110.622 161.669L109.536 160.972C108.503 160.218 107.469 162.075 108.555 162.829Z" fill="#2E3192"/>
<path d="M114.963 161.262L120.492 164.919L121.267 165.441C121.732 165.731 122.352 165.557 122.611 165.035C122.869 164.512 122.714 163.816 122.249 163.526L116.771 159.87L115.996 159.347C115.531 159.057 114.911 159.231 114.652 159.754C114.394 160.334 114.549 160.972 114.963 161.262Z" fill="#2E3192"/>
<path d="M133.326 143.787L118.258 153.36L118.588 154.017L133.657 144.444L133.326 143.787Z" fill="#DA2E81"/>
<path d="M136.002 145.874L120.934 155.447L121.265 156.103L136.333 146.53L136.002 145.874Z" fill="#DA2E81"/>
<path d="M137.909 148.233L122.841 157.806L123.172 158.463L138.24 148.89L137.909 148.233Z" fill="#DA2E81"/>
<path d="M140.566 150.399L125.498 159.972L125.829 160.629L140.897 151.055L140.566 150.399Z" fill="#DA2E81"/>
<path d="M96.5141 158.361L128.864 137.816C131.034 136.424 129.07 132.651 126.9 134.044L94.5504 154.588C92.38 155.981 94.292 159.754 96.5141 158.361Z" fill="#A2C609"/>
<path d="M115.893 86.3396L89.486 103.112C87.6256 104.272 89.2793 107.464 91.1396 106.304L117.495 89.5315C117.288 88.1386 116.823 86.8619 115.893 86.3396Z" fill="white"/>
<path d="M106.849 99.1072L91.1914 109.089C89.3827 110.25 90.9847 113.442 92.845 112.281L107.78 102.763C107.728 101.487 107.418 100.21 106.849 99.1072Z" fill="#FF9F9F"/>
<path d="M115.169 104.04C115.118 103.576 114.859 101.719 114.291 101.661L114.187 101.603L91.9664 115.763C90.1061 116.924 91.7597 120.116 93.6201 118.955L115.324 105.201C115.221 104.795 115.221 104.388 115.169 104.04Z" fill="#2E3192"/>
<path d="M121.887 87.4422C122.743 87.4422 123.437 86.3769 123.437 85.0628C123.437 83.7487 122.743 82.6834 121.887 82.6834C121.031 82.6834 120.337 83.7487 120.337 85.0628C120.337 86.3769 121.031 87.4422 121.887 87.4422Z" fill="white"/>
<path d="M123.903 94.0582C124.759 94.0582 125.453 92.9929 125.453 91.6788C125.453 90.3647 124.759 89.2993 123.903 89.2993C123.046 89.2993 122.352 90.3647 122.352 91.6788C122.352 92.9929 123.046 94.0582 123.903 94.0582Z" fill="#FF9F9F"/>
<path d="M124.213 101.487C125.069 101.487 125.763 100.421 125.763 99.1072C125.763 97.7931 125.069 96.7278 124.213 96.7278C123.356 96.7278 122.662 97.7931 122.662 99.1072C122.662 100.421 123.356 101.487 124.213 101.487Z" fill="#2E3192"/>
<g clip-path="url(#clip0_947_1369)">
<path d="M301.685 62.7833C302.558 40.3787 286.242 21.4644 265.243 20.537C244.243 19.6097 226.512 37.0205 225.638 59.4251C224.93 77.5954 235.528 93.4679 250.761 99.314L256.091 151.467L294.862 119.806C294.862 119.806 287.195 108.447 283.338 95.8512C293.881 89.0395 301.134 76.9065 301.685 62.7833Z" fill="#ED9DA0"/>
<path d="M251.391 106.779C251.391 106.779 227.506 106.025 219.979 116.565C212.452 127.106 207.631 144.949 208.092 158.158C208.553 171.367 238.148 240.751 238.148 240.751L345.692 260.612L352.051 260.905C362.33 261.379 371.121 253.097 371.954 242.156C373.547 221.214 370.898 200.158 364.205 180.4C356.026 156.253 344.27 125.907 334.527 117.825C317.686 103.855 286.534 104.88 286.534 104.88L286.615 104.947L267.496 133.964L251.391 106.779Z" fill="#1F41BB"/>
<path d="M125.702 257.654L111.835 265.142L178.404 277.685C178.404 277.685 187.387 291.668 202.765 284.057L284.598 308.041L341.123 265.964L178.199 233.837L125.702 257.654Z" fill="#090814"/>
<path d="M248.138 241.51C248.138 241.51 238.706 228.602 219.948 233.606L178.163 226.035L125.673 251.541C125.673 251.541 121.811 262.489 119.417 262.928C119.417 262.928 181.764 270.24 186.788 276.825L200.985 280.376C200.985 280.376 212.161 278.61 220.979 284.954C229.796 291.298 282.178 302.941 282.178 302.941L337.498 263.894L328.138 255.708L248.138 241.51Z" fill="#F7F9FF"/>
<mask id="path-46-inside-1_947_1369" fill="white">
<path d="M275.367 288.095L275.207 288.047C247.31 279.624 205.014 267.339 202.853 268.004L202.497 267.243C202.942 266.983 203.985 266.376 239.915 276.744C256.7 281.588 273.451 286.632 275.264 287.178L327.941 255.338L328.334 256.08L275.367 288.095Z"/>
</mask>
<path d="M275.367 288.095L275.207 288.047C247.31 279.624 205.014 267.339 202.853 268.004L202.497 267.243C202.942 266.983 203.985 266.376 239.915 276.744C256.7 281.588 273.451 286.632 275.264 287.178L327.941 255.338L328.334 256.08L275.367 288.095Z" fill="#D0CEE0"/>
<path d="M275.367 288.095L275.079 289.053L275.504 289.18L275.884 288.95L275.367 288.095ZM275.207 288.047L274.917 289.004L274.918 289.004L275.207 288.047ZM202.853 268.004L201.947 268.428L202.315 269.215L203.146 268.959L202.853 268.004ZM202.497 267.243L201.993 266.379L201.204 266.84L201.591 267.667L202.497 267.243ZM239.915 276.744L240.193 275.784L240.193 275.784L239.915 276.744ZM275.264 287.178L274.975 288.136L275.4 288.264L275.781 288.034L275.264 287.178ZM327.941 255.338L328.824 254.868L328.329 253.935L327.424 254.482L327.941 255.338ZM328.334 256.08L328.851 256.935L329.661 256.446L329.218 255.61L328.334 256.08ZM275.367 288.095L275.656 287.137L275.495 287.089L275.207 288.047L274.918 289.004L275.079 289.053L275.367 288.095ZM275.207 288.047L275.497 287.089C261.544 282.877 243.99 277.698 229.651 273.655C222.483 271.634 216.111 269.894 211.393 268.701C209.035 268.105 207.079 267.642 205.638 267.349C204.92 267.202 204.313 267.095 203.842 267.035C203.608 267.005 203.39 266.984 203.2 266.979C203.038 266.975 202.793 266.976 202.559 267.048L202.853 268.004L203.146 268.959C203.047 268.99 203.015 268.975 203.142 268.978C203.241 268.981 203.387 268.993 203.587 269.019C203.987 269.07 204.538 269.166 205.238 269.308C206.633 269.593 208.553 270.046 210.901 270.64C215.593 271.827 221.944 273.56 229.107 275.58C243.43 279.619 260.972 284.794 274.917 289.004L275.207 288.047ZM202.853 268.004L203.758 267.579L203.403 266.818L202.497 267.243L201.591 267.667L201.947 268.428L202.853 268.004ZM202.497 267.243L203.001 268.106C203.027 268.091 203 268.108 202.963 268.122C202.926 268.137 202.902 268.14 202.906 268.14C202.931 268.136 203.056 268.124 203.383 268.155C204.034 268.217 205.274 268.428 207.673 268.982C212.452 270.088 221.673 272.521 239.637 277.705L239.915 276.744L240.193 275.784C222.227 270.599 212.961 268.152 208.125 267.034C205.716 266.476 204.366 266.239 203.574 266.164C203.179 266.127 202.869 266.123 202.611 266.162C202.297 266.209 202.108 266.312 201.993 266.379L202.497 267.243ZM239.915 276.744L239.637 277.705C256.416 282.547 273.163 287.589 274.975 288.136L275.264 287.178L275.553 286.221C273.74 285.674 256.983 280.629 240.193 275.784L239.915 276.744ZM275.264 287.178L275.781 288.034L328.457 256.193L327.941 255.338L327.424 254.482L274.747 286.322L275.264 287.178ZM327.941 255.338L327.057 255.807L327.451 256.549L328.334 256.08L329.218 255.61L328.824 254.868L327.941 255.338ZM328.334 256.08L327.818 255.224L274.851 287.239L275.367 288.095L275.884 288.95L328.851 256.935L328.334 256.08Z" fill="black" mask="url(#path-46-inside-1_947_1369)"/>
<path d="M193.585 273.33L193.401 272.934C193.329 272.779 185.993 257.436 165.174 257.862C144.015 258.274 125.732 252.01 125.549 251.946L125.797 251.136C125.978 251.198 144.143 257.409 165.159 257.01C176.292 256.79 183.572 261.018 187.713 264.603C191.446 267.834 193.342 271.068 193.922 272.168L247.948 241.135L248.327 241.885L193.585 273.33Z" fill="#090814"/>
<path d="M185.019 197.35L164.886 205.784C164.886 205.784 179.134 239.029 194.218 242.698L208.878 219.917L185.019 197.35Z" fill="#6C63FF"/>
<path d="M180.208 206.373L224.928 170.85L230.645 197.667L192.705 224.159C192.035 229.772 188.971 235.481 183.884 239.55C174.982 246.67 163.29 246.072 157.769 238.213C152.247 230.355 154.987 218.213 163.888 211.092C168.976 207.023 174.971 205.486 180.208 206.373Z" fill="#ED9DA0"/>
<path d="M258.62 39.8512C258.62 39.8512 250.732 49.0921 241.77 49.8775C232.808 50.6628 230.618 49.9391 230.618 49.9391C230.618 49.9391 222.138 54.7687 228.369 59.8847L230.108 63.1862C230.108 63.1862 228.89 65.4003 227.597 63.2001L227.71 66.5105C227.71 66.5105 221.145 63.6036 221.121 58.4532C221.121 58.4532 214.317 62.1698 211.652 53.3551C211.652 53.3551 217.049 57.0042 217.168 53.3246C217.168 53.3246 207.966 47.4891 209.994 38.6484C209.994 38.6484 210.354 41.9575 212.08 42.3159C212.08 42.3159 206.504 29.8383 214.065 24.2781L215.12 28.687C215.12 28.687 215.082 20.5935 222.654 17.6085C222.654 17.6085 221.637 21.293 223.023 22.7569C223.023 22.7569 225.045 12.8126 228.84 13.1595C228.84 13.1595 226.792 17.5856 229.55 17.5703C232.309 17.5551 236.05 6.49755 236.05 6.49755C236.05 6.49755 241.552 3.15609 243.623 3.51253C243.623 3.51253 236.747 7.96528 240.885 7.9424C245.022 7.91952 247.076 4.59712 247.076 4.59712C247.076 4.59712 253.943 -1.69506 261.889 1.57206C269.836 4.83917 268.801 4.84489 268.801 4.84489C268.801 4.84489 275.325 -1.07749 280.513 2.20488L278.799 4.42172C278.799 4.42172 295.714 8.37504 295.754 16.8364C295.754 16.8364 303.855 23.8069 301.577 30.7968C301.577 30.7968 305.486 33.3378 304.812 36.6526C304.812 36.6526 310.101 61.6402 304.278 70.134L299.478 76.0468C299.478 76.0468 292.136 54.3816 289.074 63.228C286.012 72.0744 280.098 61.0703 280.098 61.0703C280.098 61.0703 272.138 54.8601 271.407 46.0347C270.676 37.2092 258.62 39.8512 258.62 39.8512Z" fill="#090814"/>
<path d="M225.134 129.511L217.513 122.734L201.818 183.337L164.886 205.784C164.886 205.784 210.41 202.975 194.218 242.698L239.203 233.844L234.752 197.727L225.134 129.511Z" fill="#1F41BB"/>
<path d="M162.549 175.752L159.903 177.684L161.263 184.624L184.026 250.814L190.515 247.879L166.168 180.846L162.549 175.752Z" fill="#090814"/>
<path d="M187.597 247.304L185.258 248.501L185.908 250.803C185.908 250.803 184.824 256.161 189.464 258.486L191.309 261.253L191.693 257.841C191.693 257.841 191.95 249.93 187.597 247.304Z" fill="#090814"/>
<path d="M281.48 230.139L357.159 233.108L358.747 257.474L280.754 252.357C276.932 256.28 271.19 258.677 264.836 258.442C253.718 258.031 244.966 249.74 245.286 239.924C245.607 230.107 254.879 222.483 265.997 222.894C272.351 223.129 277.923 225.943 281.48 230.139Z" fill="#ED9DA0"/>
<path d="M270.899 178.267C272.443 178.258 273.688 176.916 273.681 175.268C273.673 173.621 272.415 172.292 270.871 172.301C269.327 172.309 268.081 173.652 268.089 175.299C268.096 176.947 269.354 178.275 270.899 178.267Z" fill="#090814"/>
<path d="M271.062 213.211C272.606 213.203 273.852 211.86 273.844 210.213C273.836 208.565 272.578 207.237 271.034 207.245C269.49 207.254 268.244 208.596 268.252 210.244C268.26 211.891 269.518 213.22 271.062 213.211Z" fill="#090814"/>
<path d="M351.484 260.781C353.654 257.704 295.963 255.55 294.414 252.716C286.053 237.411 290.292 225.464 290.292 225.464L357.717 208.045L327.515 174.84L352.24 194.667C365.927 205.643 373.386 223.338 372 241.548C371.143 252.813 362.065 261.323 351.484 260.781Z" fill="#1F41BB"/>
<path d="M156.016 234.966L125.622 250.753L125.972 251.519L156.366 235.732L156.016 234.966Z" fill="#090814"/>
</g>
<path d="M37.3991 162.054C24.9447 166.355 18.1888 179.48 22.3007 191.387L27.6573 206.898C30.7266 215.786 43.2952 219.492 55.7496 215.191C68.204 210.89 75.807 200.218 72.7377 191.33L67.3811 175.819C63.2495 163.919 49.8337 157.76 37.3991 162.054Z" fill="#909CC7"/>
<path opacity="0.3" d="M53.4754 162.035C55.2247 166.141 57.0858 170.187 58.7364 174.327C63.179 185.528 66.1098 199.005 59.5629 210.369C58.5588 212.067 57.3842 213.655 55.9998 215.084C68.2834 210.736 75.7548 200.13 72.7116 191.318L67.3485 175.788C65.1591 169.384 60.0607 164.344 53.4754 162.035Z" fill="black"/>
<path d="M49.6494 160.041C46.7954 158.365 41.8007 158.231 36.6887 159.997C31.5767 161.762 27.729 164.95 26.5236 168.048L25.3393 168.457L26.3559 171.401C27.6918 175.269 34.4777 176.432 41.524 173.998C48.5703 171.565 53.1927 166.463 51.8568 162.594L50.8337 159.632L49.6494 160.041Z" fill="#895630"/>
<path opacity="0.46" d="M49.6494 160.041C46.7954 158.365 41.8007 158.231 36.6887 159.997C31.5767 161.762 27.729 164.95 26.5236 168.048L25.3393 168.457L26.3559 171.401C27.6918 175.269 34.4777 176.432 41.524 173.998C48.5703 171.565 53.1927 166.463 51.8568 162.594L50.8337 159.632L49.6494 160.041Z" fill="black"/>
<path d="M40.5009 171.036C47.5428 168.604 52.1689 163.498 50.8337 159.632C49.4985 155.765 42.7075 154.602 35.6656 157.034C28.6238 159.466 23.9976 164.572 25.3329 168.438C26.6681 172.305 33.459 173.468 40.5009 171.036Z" fill="#895630"/>
<path d="M24.5234 177.673C23.3267 182.268 23.6411 187.08 25.4093 191.433C25.8725 192.582 27.8133 191.933 27.3238 190.772C25.6729 186.759 25.3706 182.301 26.4809 178.032C26.8263 176.793 24.849 176.441 24.5234 177.673Z" fill="white"/>
<path d="M27.1333 192.971C26.6069 193.174 26.3293 193.713 26.4855 194.229L26.5181 194.324C26.6743 194.84 27.2387 195.131 27.7584 194.973C28.2781 194.814 28.6149 194.254 28.4652 193.757C28.4587 193.738 28.4457 193.7 28.4392 193.681L28.4066 193.587C28.2241 193.059 27.6663 192.787 27.1333 192.971Z" fill="white"/>
<path d="M42.4627 205.439L43.282 206.212L43.1265 205.442" fill="#FCD11A"/>
<path d="M49.8941 203.94C52.396 201.542 53.4093 198.611 52.1574 197.393C50.9055 196.176 47.8625 197.133 45.3606 199.532C42.8587 201.93 41.8454 204.861 43.0973 206.078C44.3492 207.295 47.3923 206.338 49.8941 203.94Z" fill="#FCD11A"/>
<path d="M51.5255 196.755L52.1677 197.399L51.7927 197.528L51.5255 196.755Z" fill="#FCD11A"/>
<path d="M49.2593 203.312C51.7612 200.913 52.7745 197.982 51.5226 196.765C50.2707 195.548 47.2276 196.505 44.7257 198.903C42.2239 201.302 41.2106 204.233 42.4625 205.45C43.7144 206.667 46.7574 205.71 49.2593 203.312Z" fill="#FEDE17"/>
<path d="M50.9455 197.314C52.04 198.372 51.0404 200.787 48.8718 202.888C46.7033 204.988 44.157 205.931 43.0625 204.873C41.968 203.815 42.9153 201.312 45.0904 199.231C47.2655 197.149 49.8576 196.275 50.9455 197.314Z" fill="#FEA500"/>
<path d="M47.0585 200.452C47.59 200.775 47.7203 201.152 47.2384 201.868C46.7565 202.584 46.085 202.942 45.4147 202.92L45.0319 203.475L44.5852 203.397L44.9615 202.823C44.5872 202.699 44.2923 202.421 44.1882 202.055L45.0775 201.368C45.1425 201.62 45.3127 201.857 45.549 201.966L45.9979 201.283C45.4468 200.966 45.3164 200.589 45.7786 199.88C46.2408 199.171 46.9255 198.787 47.6023 198.828L47.8202 198.499L48.2669 198.577L48.0293 198.913C48.3248 199.001 48.5607 199.236 48.6387 199.526L47.7756 200.225C47.7104 200.036 47.5926 199.887 47.4285 199.796L47.0585 200.452ZM46.4498 201.823C46.5489 201.663 46.5426 201.58 46.3852 201.444L45.9627 202.076C46.1467 202.097 46.331 201.991 46.4498 201.823ZM46.7172 200.295L47.1265 199.689C46.9426 199.668 46.7517 199.755 46.6329 199.923L46.6132 199.93C46.5273 200.065 46.5402 200.166 46.7172 200.295Z" fill="#FEDE17"/>
<path d="M60.2094 198.423L60.0615 199.531L60.6088 198.94" fill="#FCD11A"/>
<path d="M72.5419 200.636C72.7871 198.907 70.1924 197.209 66.7465 196.845C63.3005 196.48 60.3082 197.587 60.063 199.316C59.8178 201.046 62.4125 202.743 65.8585 203.107C69.3044 203.472 72.2967 202.365 72.5419 200.636Z" fill="#FCD11A"/>
<path d="M72.6865 199.754L72.5524 200.645L72.2178 200.444L72.6865 199.754Z" fill="#FCD11A"/>
<path d="M72.6663 199.759C72.9115 198.03 70.3168 196.333 66.8709 195.968C63.4249 195.604 60.4326 196.711 60.1874 198.44C59.9422 200.169 62.5369 201.867 65.9828 202.231C69.4288 202.595 72.4211 201.489 72.6663 199.759Z" fill="#FEDE17"/>
<path d="M71.8651 199.678C71.6569 201.186 69.0847 201.99 66.1018 201.669C63.1189 201.347 60.8093 200.033 61.024 198.543C61.2387 197.054 63.8441 196.154 66.8467 196.469C69.8494 196.784 72.0734 198.17 71.8651 199.678Z" fill="#FEA500"/>
<path d="M67.0043 198.717C67.0616 199.331 66.824 199.666 65.9562 199.776C65.0883 199.886 64.3859 199.579 64.0325 199.067L63.3488 199.135L63.1462 198.74L63.83 198.673C63.7061 198.314 63.7665 197.913 63.9909 197.603L65.0878 197.837C64.9163 198.044 64.8366 198.325 64.8818 198.584L65.7102 198.488C65.6529 197.874 65.8642 197.527 66.7321 197.417C67.6 197.307 68.3156 197.588 68.682 198.138L69.0831 198.084L69.2857 198.478L68.8583 198.52C68.9561 198.803 68.9091 199.115 68.7309 199.367L67.6273 199.178C67.7461 199.01 67.7927 198.825 67.7735 198.641L67.0043 198.717ZM65.5374 199.139C65.7281 199.115 65.794 199.05 65.788 198.841L65.0188 198.917C65.1432 199.085 65.327 199.169 65.5374 199.139ZM66.9265 198.364L67.6694 198.276C67.5713 198.12 67.3875 198.035 67.1771 198.066L67.1574 198.073C67.0062 198.083 66.9403 198.148 66.9265 198.364Z" fill="#FEDE17"/>
<path opacity="0.5" d="M29.1479 162.981L29.1153 162.887C28.8482 162.113 29.2845 161.266 30.0937 160.986C30.3503 160.897 30.6264 160.865 30.8891 160.923L47.1539 163.817C47.6926 163.906 48.1253 164.263 48.3013 164.773C48.5684 165.546 48.1321 166.394 47.3229 166.673C47.0663 166.762 46.7902 166.794 46.5275 166.737L30.315 163.93C29.7566 163.848 29.3174 163.472 29.1479 162.981Z" fill="black"/>
<path d="M36.8075 159.829C35.7744 160.228 34.8 160.797 33.9698 161.527C32.6518 162.7 37.628 162.397 37.628 162.397" fill="#EA8B24"/>
<path d="M39.2161 165.46C40.7861 165.721 42.3361 166.115 43.8929 166.401C44.3644 164.759 44.0278 163.017 42.9735 161.691C41.1861 159.394 37.9212 158.832 35.7015 160.465C34.3841 161.447 33.6631 163.006 33.7701 164.595C35.5833 164.856 37.3898 165.162 39.2161 165.46Z" fill="#EA8B24"/>
<path d="M39.2161 165.46C40.4052 165.641 41.5809 165.911 42.75 166.162C42.8592 164.815 42.4688 163.492 41.6372 162.428C39.8497 160.13 36.5849 159.568 34.3652 161.201C33.331 161.98 32.644 163.126 32.4761 164.366C34.736 164.705 36.9694 165.096 39.2161 165.46Z" fill="#FFD008"/>
<path d="M42.3037 165.957L41.9425 165.87C41.082 165.682 40.1756 165.488 39.2887 165.351C38.6383 165.258 38.0012 165.141 37.364 165.023C36.0042 164.795 34.5984 164.563 33.1991 164.349L33.0939 164.364L33.1073 164.275C33.3965 162.042 35.5045 160.406 37.8108 160.623C37.9488 160.639 38.067 160.661 38.205 160.677C40.7274 161.137 42.4823 163.34 42.3041 165.83L42.3037 165.957ZM33.3441 164.193C34.6974 164.402 36.077 164.622 37.4105 164.838C38.0477 164.955 38.6981 165.048 39.3353 165.166C40.2222 165.303 41.1286 165.497 41.989 165.685L42.1073 165.708C42.2194 163.346 40.5429 161.306 38.1584 160.862C36.0039 160.445 33.8704 161.815 33.3778 163.907C33.3644 163.996 33.351 164.085 33.3441 164.193Z" fill="#EA8B24"/>
<path d="M39.2161 165.46L39.5248 165.523C39.4401 165.277 39.2764 165.059 39.0731 164.918C38.85 164.784 38.6005 164.701 38.3311 164.689C38.0616 164.676 37.8185 164.676 37.5621 164.701C37.3451 164.712 37.1217 164.705 36.905 164.653C36.7407 164.625 36.5899 164.509 36.5378 164.358C36.4922 164.225 36.5255 164.066 36.5981 163.957C36.7037 163.814 36.8421 163.703 37.0262 163.661C37.1841 163.606 37.355 163.59 37.539 163.611C37.6507 163.614 37.7755 163.656 37.8937 163.678C37.9462 163.702 37.9987 163.726 38.0512 163.75L38.4743 162.928L38.3168 162.856C38.1658 162.803 38.0148 162.749 37.8505 162.721C37.6403 162.688 37.4169 162.681 37.1802 162.7L36.9849 162.07L36.0902 162.358L36.2855 162.987C35.9433 163.148 35.6664 163.434 35.5143 163.761C35.3753 164.062 35.3349 164.393 35.4457 164.714C35.4653 164.77 35.4783 164.808 35.4978 164.865C36.7329 165.051 37.9745 165.255 39.2161 165.46Z" fill="#EA8B24"/>
<path d="M42.9587 211.097L43.7714 211.851L43.616 211.081" fill="#FCD11A"/>
<path d="M50.3958 209.593C52.8977 207.195 53.911 204.264 52.6591 203.047C51.4072 201.829 48.3641 202.787 45.8622 205.185C43.3603 207.583 42.347 210.514 43.5989 211.731C44.8509 212.949 47.8939 211.991 50.3958 209.593Z" fill="#FCD11A"/>
<path d="M52.0214 202.413L52.6571 203.038L52.2821 203.167L52.0214 202.413Z" fill="#FCD11A"/>
<path d="M49.7452 208.95C52.247 206.552 53.2603 203.621 52.0084 202.403C50.7565 201.186 47.7135 202.143 45.2116 204.541C42.7097 206.94 41.6964 209.871 42.9483 211.088C44.2002 212.305 47.2433 211.348 49.7452 208.95Z" fill="#FEDE17"/>
<path d="M51.4217 202.979C52.5161 204.037 51.5165 206.452 49.348 208.553C47.1794 210.653 44.6331 211.596 43.5387 210.538C42.4442 209.48 43.3915 206.977 45.5665 204.895C47.7416 202.814 50.347 201.914 51.4217 202.979Z" fill="#FEA500"/>
<path d="M47.5282 206.098C48.0596 206.421 48.1899 206.798 47.708 207.514C47.2261 208.229 46.5546 208.588 45.8843 208.566L45.5015 209.121L45.0548 209.043L45.4311 208.469C45.0568 208.345 44.7619 208.067 44.6578 207.701L45.5471 207.014C45.6121 207.266 45.7758 207.484 46.0186 207.612L46.4675 206.928C45.9164 206.612 45.786 206.235 46.2482 205.526C46.7104 204.817 47.3951 204.433 48.0719 204.474L48.2898 204.145L48.7365 204.223L48.4989 204.558C48.7944 204.647 49.004 204.87 49.1018 205.153L48.2452 205.871C48.1866 205.701 48.0622 205.533 47.8982 205.442L47.5282 206.098ZM46.9392 207.463C47.0382 207.302 47.0319 207.219 46.8746 207.084L46.4521 207.715C46.636 207.736 46.8269 207.649 46.9392 207.463ZM47.2066 205.934L47.6159 205.328C47.4319 205.307 47.241 205.394 47.1222 205.562C47.0429 205.716 47.0295 205.805 47.2066 205.934Z" fill="#FEDE17"/>
<path d="M32.3266 197.07L32.1984 198.17L32.726 197.587" fill="#FCD11A"/>
<path d="M44.6675 199.289C44.9127 197.56 42.318 195.863 38.8721 195.498C35.4261 195.134 32.4339 196.241 32.1886 197.97C31.9434 199.699 34.5381 201.397 37.9841 201.761C41.43 202.125 44.4223 201.019 44.6675 199.289Z" fill="#FCD11A"/>
<path d="M44.8037 198.4L44.6696 199.291L44.335 199.09L44.8037 198.4Z" fill="#FCD11A"/>
<path d="M44.7947 198.393C45.0399 196.664 42.4452 194.966 38.9992 194.602C35.5533 194.238 32.561 195.344 32.3158 197.074C32.0706 198.803 34.6653 200.5 38.1112 200.865C41.5572 201.229 44.5494 200.123 44.7947 198.393Z" fill="#FEDE17"/>
<path d="M44.0021 198.318C43.7938 199.826 41.2216 200.63 38.2387 200.308C35.2558 199.987 32.9462 198.672 33.1609 197.183C33.3756 195.694 35.981 194.794 38.9836 195.109C41.9863 195.424 44.2103 196.81 44.0021 198.318Z" fill="#FEA500"/>
<path d="M39.1216 197.363C39.1789 197.977 38.9413 198.313 38.0734 198.422C37.2055 198.532 36.5032 198.225 36.1498 197.714L35.466 197.781L35.2635 197.386L35.9669 197.312C35.8431 196.954 35.9035 196.553 36.1278 196.243L37.2248 196.477C37.0533 196.684 36.9736 196.965 37.0188 197.224L37.8472 197.128C37.7834 196.495 38.0012 196.166 38.8691 196.057C39.737 195.947 40.446 196.209 40.819 196.777L41.2201 196.723L41.4226 197.118L41.015 197.153C41.1128 197.436 41.0659 197.748 40.8877 198L39.8038 197.804C39.9226 197.636 39.9691 197.451 39.95 197.267L39.1216 197.363ZM37.6547 197.785C37.8453 197.762 37.9112 197.697 37.9053 197.488L37.1361 197.563C37.2605 197.732 37.4442 197.816 37.6547 197.785ZM39.0635 197.003L39.8064 196.916C39.7083 196.759 39.5245 196.675 39.3338 196.699L39.3141 196.706C39.1234 196.729 39.0575 196.794 39.0635 197.003Z" fill="#FEDE17"/>
<path d="M70.729 188.264C70.2589 187.223 69.5782 186.275 68.7459 185.464C67.4023 184.197 67.8864 189.373 67.8864 189.373" fill="#EA8B24"/>
<path d="M68.9008 194.859C71.4232 192.781 71.921 189.331 70.0127 187.153C68.1044 184.975 64.5126 184.895 61.9902 186.973C59.4678 189.051 58.97 192.501 60.8783 194.679C62.7866 196.856 66.3784 196.937 68.9008 194.859Z" fill="#EA8B24"/>
<path d="M67.9921 193.526C70.5145 191.448 71.0123 187.998 69.104 185.82C67.1957 183.642 63.6039 183.561 61.0815 185.639C58.5591 187.718 58.0613 191.168 59.9696 193.345C61.8779 195.523 65.4697 195.604 67.9921 193.526Z" fill="#FFD008"/>
<path d="M65.7822 194.155C65.1506 194.373 64.4997 194.471 63.8359 194.468C61.3121 194.452 59.3265 192.477 59.4126 190.039C59.4132 189.849 59.44 189.671 59.4603 189.474C59.9087 186.742 62.386 184.704 65.2384 184.712C67.7622 184.727 69.7478 186.702 69.6617 189.14C69.6611 189.33 69.6343 189.508 69.614 189.706C69.4064 191.023 68.6995 192.239 67.6322 193.114C67.0788 193.559 66.4533 193.923 65.7822 194.155ZM63.3572 185.213C62.7059 185.438 62.1134 185.77 61.5797 186.207C60.5453 187.05 59.8649 188.215 59.664 189.488C59.2891 191.793 60.9062 193.917 63.2845 194.215C63.4685 194.236 63.6525 194.256 63.8497 194.252C66.5903 194.256 68.982 192.289 69.4038 189.673C69.7787 187.368 68.1616 185.244 65.7832 184.946C65.5993 184.925 65.4153 184.904 65.2181 184.909C64.5938 184.892 63.9691 185.002 63.3572 185.213Z" fill="#EA8B24"/>
<path d="M67.544 189.597C67.5369 189.768 67.4838 189.934 67.4045 190.088L67.3252 190.242L66.3863 189.891C66.4193 189.858 66.4392 189.788 66.4657 189.737C66.512 189.615 66.5321 189.481 66.5325 189.355C66.5593 189.176 66.5204 189 66.4618 188.83C66.4031 188.66 66.2853 188.511 66.1212 188.419C65.9834 188.34 65.8257 188.331 65.6678 188.386C65.4967 188.466 65.3714 188.615 65.3643 188.786C65.3308 189.009 65.3038 189.251 65.3425 189.491C65.368 189.757 65.3673 190.01 65.373 190.283C65.3788 190.556 65.2926 190.818 65.1341 191.062C64.9624 191.333 64.6989 191.53 64.4029 191.632C64.0344 191.78 63.64 191.79 63.2657 191.665C62.885 191.522 62.5506 191.258 62.3413 190.908L61.6372 191.172L61.2785 190.261L61.9628 190.003C61.9173 189.808 61.8982 189.624 61.8987 189.434C61.9058 189.263 61.9194 189.11 61.9527 188.951C61.9728 188.817 61.9995 188.702 62.0458 188.581C62.0593 188.492 62.0989 188.415 62.1386 188.338L62.198 188.254L63.0973 188.619C63.0709 188.67 63.0444 188.722 63.0113 188.818C62.9517 188.965 62.9249 189.143 62.9113 189.296C62.8843 189.537 62.9165 189.759 63.0144 189.978C63.0861 190.186 63.2367 190.366 63.4335 190.488C63.5976 190.579 63.8013 190.593 63.9921 190.506C64.1698 190.445 64.2886 190.277 64.3154 190.099C64.3687 189.87 64.3759 189.635 64.3372 189.395C64.3117 189.129 64.3059 188.856 64.3067 188.603C64.3009 188.33 64.3872 188.068 64.5456 187.823C64.7173 187.553 64.9808 187.356 65.2768 187.254C65.6256 187.112 66.0002 187.11 66.3548 187.241C66.7355 187.384 67.0437 187.636 67.2465 187.968L67.9505 187.703L68.3093 188.614L67.6052 188.879C67.598 189.113 67.5972 189.367 67.544 189.597Z" fill="#EA8B24"/>
<path d="M48.5267 204L48.3788 205.107L48.9195 204.498" fill="#FCD11A"/>
<path d="M60.867 206.206C61.1123 204.477 58.5176 202.779 55.0716 202.415C51.6257 202.051 48.6334 203.157 48.3882 204.887C48.1429 206.616 50.7376 208.313 54.1836 208.678C57.6295 209.042 60.6218 207.935 60.867 206.206Z" fill="#FCD11A"/>
<path d="M60.9778 205.318L60.8634 206.202L60.5288 206.001L60.9778 205.318Z" fill="#FCD11A"/>
<path d="M60.9924 205.327C61.2376 203.597 58.6429 201.9 55.197 201.536C51.751 201.171 48.7587 202.278 48.5135 204.007C48.2683 205.737 50.863 207.434 54.309 207.798C57.7549 208.163 60.7472 207.056 60.9924 205.327Z" fill="#FEDE17"/>
<path d="M60.176 205.236C59.9678 206.744 57.3956 207.548 54.3929 207.233C51.3903 206.918 49.1004 205.597 49.3151 204.108C49.5299 202.618 52.1352 201.719 55.1379 202.033C58.1406 202.348 60.3842 203.728 60.176 205.236Z" fill="#FEA500"/>
<path d="M55.3218 204.293C55.3791 204.907 55.1415 205.242 54.2736 205.352C53.4057 205.462 52.7034 205.155 52.35 204.644L51.6662 204.711L51.4637 204.316L52.1474 204.249C52.0236 203.89 52.0839 203.489 52.3083 203.18L53.4052 203.413C53.2337 203.62 53.154 203.901 53.1992 204.16L54.0277 204.064C53.9703 203.45 54.1817 203.103 55.0496 202.993C55.924 202.902 56.633 203.164 56.9994 203.714L57.4005 203.66L57.6031 204.054L57.1758 204.096C57.2735 204.379 57.2266 204.691 57.0484 204.943L55.9645 204.747C56.0833 204.579 56.1299 204.394 56.1107 204.211L55.3218 204.293ZM53.8483 204.696C54.039 204.673 54.1049 204.608 54.099 204.399L53.3298 204.474C53.4344 204.649 53.6379 204.727 53.8483 204.696ZM55.2374 203.921L55.9804 203.833C55.8822 203.677 55.6985 203.593 55.488 203.623C55.3171 203.64 55.2512 203.705 55.2374 203.921Z" fill="#FEDE17"/>
<path d="M34.5043 211.82L34.3697 212.902L34.9169 212.311" fill="#FCD11A"/>
<path d="M46.8474 214.004C47.0926 212.275 44.4979 210.577 41.052 210.213C37.606 209.849 34.6137 210.955 34.3685 212.684C34.1233 214.414 36.718 216.111 40.1639 216.476C43.6099 216.84 46.6022 215.733 46.8474 214.004Z" fill="#FCD11A"/>
<path d="M46.975 213.132L46.8606 214.016L46.526 213.815L46.975 213.132Z" fill="#FCD11A"/>
<path d="M46.9717 213.128C47.2169 211.398 44.6222 209.701 41.1763 209.336C37.7303 208.972 34.7381 210.079 34.4928 211.808C34.2476 213.537 36.8423 215.235 40.2883 215.599C43.7342 215.964 46.7265 214.857 46.9717 213.128Z" fill="#FEDE17"/>
<path d="M46.1733 213.049C45.9651 214.557 43.3929 215.361 40.3903 215.046C37.3876 214.732 35.0977 213.41 35.3125 211.921C35.5272 210.432 38.1325 209.532 41.1352 209.847C44.1379 210.162 46.3816 211.541 46.1733 213.049Z" fill="#FEA500"/>
<path d="M41.3126 212.088C41.3699 212.702 41.1323 213.037 40.2644 213.147C39.3965 213.257 38.6942 212.95 38.321 212.445L37.6373 212.512L37.4347 212.118L38.1185 212.05C37.9947 211.692 38.055 211.291 38.2794 210.981L39.3763 211.215C39.2048 211.422 39.1251 211.703 39.1703 211.962L39.9987 211.866C39.9414 211.252 40.1527 210.904 41.0206 210.795C41.8885 210.685 42.6041 210.966 42.9705 211.515L43.3716 211.461L43.5742 211.856L43.1468 211.898C43.2446 212.181 43.1976 212.493 43.0194 212.745L41.9356 212.549C42.0544 212.381 42.1009 212.196 42.0818 212.012L41.3126 212.088ZM39.8259 212.517C40.0166 212.493 40.0825 212.428 40.0766 212.219L39.3074 212.295C39.4252 212.444 39.609 212.528 39.8259 212.517ZM41.2282 211.716L41.9712 211.628C41.873 211.472 41.6893 211.388 41.4789 211.418L41.4591 211.425C41.3079 211.435 41.2223 211.507 41.2282 211.716Z" fill="#FEDE17"/>
<path d="M46.4184 210.177L46.2838 211.258L46.8113 210.675" fill="#FCD11A"/>
<path d="M58.7733 212.385C59.0186 210.655 56.4239 208.958 52.9779 208.594C49.532 208.229 46.5397 209.336 46.2945 211.065C46.0493 212.794 48.644 214.492 52.0899 214.856C55.5359 215.221 58.5281 214.114 58.7733 212.385Z" fill="#FCD11A"/>
<path d="M58.8891 211.488L58.755 212.379L58.4401 212.171L58.8891 211.488Z" fill="#FCD11A"/>
<path d="M58.9005 211.488C59.1458 209.759 56.5511 208.062 53.1051 207.697C49.6592 207.333 46.6669 208.439 46.4217 210.169C46.1764 211.898 48.7712 213.595 52.2171 213.96C55.663 214.324 58.6553 213.218 58.9005 211.488Z" fill="#FEDE17"/>
<path d="M58.0874 211.406C57.8792 212.914 55.307 213.718 52.3043 213.403C49.3017 213.088 47.0118 211.767 47.2265 210.278C47.4412 208.789 50.0466 207.889 53.0493 208.204C56.0519 208.519 58.2956 209.898 58.0874 211.406Z" fill="#FEA500"/>
<path d="M53.207 210.451C53.2643 211.065 53.0267 211.401 52.1588 211.51C51.2909 211.62 50.5886 211.313 50.2155 210.809L49.5317 210.876L49.3357 210.5L50.0194 210.433C49.8956 210.074 49.9559 209.673 50.1803 209.363L51.2772 209.597C51.1057 209.804 51.026 210.085 51.0713 210.344L51.8997 210.248C51.8423 209.634 52.0537 209.287 52.9216 209.177C53.7895 209.068 54.4985 209.33 54.8714 209.898L55.2725 209.844L55.4751 210.238L55.0675 210.274C55.1653 210.557 55.1183 210.868 54.9401 211.12L53.8563 210.924C53.9751 210.756 54.0216 210.571 54.0024 210.388L53.207 210.451ZM51.7401 210.874C51.9307 210.85 51.9967 210.785 51.9907 210.576L51.2215 210.651C51.3459 210.82 51.5297 210.904 51.7401 210.874ZM53.1489 210.091L53.8918 210.004C53.7937 209.848 53.6099 209.763 53.3995 209.794L53.3798 209.8C53.2089 209.817 53.1429 209.882 53.1489 210.091Z" fill="#FEDE17"/>
<path d="M54.7572 204.066L54.6226 205.147L55.1699 204.557" fill="#FCD11A"/>
<path d="M67.1004 206.251C67.3457 204.522 64.751 202.825 61.305 202.46C57.8591 202.096 54.8668 203.203 54.6216 204.932C54.3763 206.661 56.971 208.359 60.417 208.723C63.8629 209.087 66.8552 207.981 67.1004 206.251Z" fill="#FCD11A"/>
<path d="M67.2278 205.377L67.1135 206.261L66.7789 206.06L67.2278 205.377Z" fill="#FCD11A"/>
<path d="M67.2239 205.373C67.4691 203.644 64.8744 201.946 61.4284 201.582C57.9825 201.218 54.9902 202.324 54.745 204.054C54.4998 205.783 57.0945 207.48 60.5404 207.845C63.9864 208.209 66.9786 207.103 67.2239 205.373Z" fill="#FEDE17"/>
<path d="M66.4262 205.295C66.218 206.803 63.6458 207.607 60.6629 207.285C57.68 206.964 55.3704 205.649 55.5851 204.16C55.7998 202.671 58.4052 201.771 61.4078 202.086C64.4105 202.401 66.6345 203.787 66.4262 205.295Z" fill="#FEA500"/>
<path d="M61.5655 204.333C61.6228 204.947 61.3852 205.283 60.5173 205.392C59.6494 205.502 58.9471 205.195 58.5937 204.684L57.91 204.751L57.7074 204.356L58.3911 204.289C58.2673 203.931 58.3276 203.53 58.552 203.22L59.6489 203.454C59.4774 203.661 59.3977 203.942 59.443 204.201L60.2714 204.105C60.214 203.491 60.4254 203.143 61.2933 203.034C62.1612 202.924 62.8767 203.205 63.2432 203.754L63.6442 203.7L63.8468 204.095L63.4195 204.137C63.5172 204.42 63.4703 204.732 63.2921 204.983L62.2017 204.769C62.3205 204.601 62.3671 204.416 62.3479 204.232L61.5655 204.333ZM60.0788 204.762C60.2695 204.739 60.3354 204.674 60.3295 204.465L59.5603 204.54C59.6846 204.708 59.8882 204.786 60.0788 204.762ZM61.4811 203.961L62.2241 203.874C62.1259 203.718 61.9422 203.633 61.7515 203.657L61.7318 203.664C61.5673 203.699 61.4817 203.771 61.4811 203.961Z" fill="#FEDE17"/>
<path d="M56.0728 194.825L55.9249 195.932L56.4657 195.323" fill="#FCD11A"/>
<path d="M68.4164 197.035C68.6616 195.305 66.0669 193.608 62.6209 193.244C59.175 192.879 56.1827 193.986 55.9375 195.715C55.6923 197.445 58.287 199.142 61.7329 199.506C65.1789 199.871 68.1711 198.764 68.4164 197.035Z" fill="#FCD11A"/>
<path d="M68.5499 196.156L68.4158 197.047L68.0747 196.827L68.5499 196.156Z" fill="#FCD11A"/>
<path d="M68.5426 196.136C68.7878 194.407 66.1931 192.71 62.7471 192.345C59.3012 191.981 56.3089 193.088 56.0637 194.817C55.8185 196.546 58.4132 198.244 61.8591 198.608C65.3051 198.972 68.2974 197.866 68.5426 196.136Z" fill="#FEDE17"/>
<path d="M67.7221 196.061C67.5139 197.569 64.9417 198.373 61.9587 198.052C58.9758 197.73 56.6662 196.416 56.8809 194.926C57.0957 193.437 59.701 192.537 62.7037 192.852C65.7063 193.167 67.9566 194.565 67.7221 196.061Z" fill="#FEA500"/>
<path d="M62.868 195.119C62.9253 195.733 62.6877 196.068 61.8198 196.178C60.9519 196.287 60.2496 195.981 59.8765 195.476L59.1927 195.543L58.9902 195.148L59.6739 195.081C59.5501 194.723 59.6104 194.322 59.8348 194.012L60.9317 194.246C60.7602 194.453 60.6805 194.734 60.7257 194.993L61.5541 194.897C61.4968 194.283 61.7082 193.935 62.576 193.826C63.4439 193.716 64.1595 193.997 64.5259 194.546L64.927 194.492L65.1296 194.887L64.7022 194.929C64.8 195.212 64.7531 195.524 64.5749 195.775L63.491 195.579C63.6098 195.412 63.6563 195.227 63.6372 195.043L62.868 195.119ZM61.4011 195.541C61.5917 195.517 61.6577 195.452 61.6517 195.243L60.8825 195.319C61.0004 195.468 61.1841 195.552 61.4011 195.541ZM62.8034 194.74L63.5463 194.652C63.4482 194.496 63.2644 194.412 63.054 194.442L63.0343 194.449C62.8633 194.466 62.7974 194.531 62.8034 194.74Z" fill="#FEDE17"/>
<path d="M27.7986 201.358L27.6507 202.465L28.1915 201.856" fill="#FCD11A"/>
<path d="M40.1413 203.563C40.3865 201.834 37.7918 200.136 34.3458 199.772C30.8999 199.407 27.9076 200.514 27.6624 202.243C27.4172 203.973 30.0119 205.67 33.4578 206.034C36.9038 206.399 39.8961 205.292 40.1413 203.563Z" fill="#FCD11A"/>
<path d="M40.2692 202.67L40.1351 203.561L39.8005 203.359L40.2692 202.67Z" fill="#FCD11A"/>
<path d="M40.2684 202.667C40.5136 200.937 37.9189 199.24 34.473 198.875C31.027 198.511 28.0347 199.618 27.7895 201.347C27.5443 203.076 30.139 204.774 33.585 205.138C37.0309 205.503 40.0232 204.396 40.2684 202.667Z" fill="#FEDE17"/>
<path d="M39.4478 202.594C39.2396 204.102 36.6674 204.906 33.6845 204.584C30.7016 204.263 28.392 202.948 28.6067 201.459C28.8214 199.97 31.4268 199.07 34.4294 199.385C37.4321 199.7 39.6758 201.079 39.4478 202.594Z" fill="#FEA500"/>
<path d="M34.5871 201.633C34.6445 202.247 34.4069 202.582 33.539 202.692C32.6711 202.801 31.9687 202.495 31.6154 201.983L30.9316 202.05L30.729 201.656L31.4325 201.582C31.3087 201.223 31.369 200.822 31.5934 200.512L32.6903 200.746C32.5188 200.953 32.4391 201.234 32.4844 201.493L33.3128 201.397C33.2554 200.783 33.4668 200.436 34.3347 200.326C35.2026 200.216 35.9181 200.497 36.2846 201.047L36.6856 200.992L36.8882 201.387L36.4806 201.422C36.5784 201.705 36.5314 202.017 36.3532 202.269L35.2694 202.073C35.3882 201.905 35.4347 201.72 35.4155 201.537L34.5871 201.633ZM33.1202 202.055C33.3109 202.031 33.3768 201.966 33.3774 201.776L32.6082 201.851C32.726 202.001 32.9098 202.085 33.1202 202.055ZM34.529 201.273L35.272 201.185C35.1739 201.029 34.9901 200.944 34.7994 200.968L34.7797 200.975C34.589 200.998 34.5231 201.063 34.529 201.273Z" fill="#FEDE17"/>
<path d="M32.2215 201.436C31.4564 202.355 30.8881 203.396 30.5168 204.496C29.9397 206.279 34.49 203.335 34.49 203.335" fill="#EA8B24"/>
<path d="M42.4179 206.762C43.5862 204.069 42.091 200.953 39.0782 199.802C36.0654 198.652 32.6759 199.903 31.5076 202.597C30.3392 205.29 31.8345 208.406 34.8473 209.556C37.8601 210.707 41.2496 209.456 42.4179 206.762Z" fill="#EA8B24"/>
<path d="M41.6081 208.174C42.7764 205.48 41.2812 202.364 38.2684 201.214C35.2556 200.064 31.8661 201.315 30.6978 204.008C29.5294 206.702 31.0246 209.818 34.0374 210.968C37.0502 212.118 40.4397 210.867 41.6081 208.174Z" fill="#FFD008"/>
<path d="M38.1492 210.54C36.8662 210.983 35.4861 210.953 34.252 210.45C31.5538 209.418 30.2147 206.628 31.2603 204.218C31.783 203.045 32.7847 202.107 34.0282 201.678C35.3244 201.209 36.7637 201.219 38.0176 201.715C40.7158 202.748 42.0549 205.538 41.0093 207.947C40.4866 209.121 39.4848 210.058 38.2413 210.487L38.1492 210.54ZM34.3248 210.277C35.5524 210.761 36.926 210.773 38.1827 210.318C39.3669 209.909 40.3423 209.023 40.832 207.882C41.8247 205.575 40.5313 202.917 37.9513 201.907C36.7237 201.423 35.3501 201.411 34.0934 201.867C32.9091 202.276 31.9338 203.161 31.4375 204.283C30.4513 206.609 31.7448 209.267 34.3248 210.277Z" fill="#EA8B24"/>
<path d="M34.8379 203.51C34.9958 203.456 35.1734 203.394 35.3443 203.378L35.5218 203.38L35.6175 204.36C35.5517 204.362 35.486 204.364 35.4465 204.377C35.3216 204.399 35.1834 204.447 35.0715 204.507C34.8939 204.568 34.7358 204.686 34.6105 204.835C34.4786 204.965 34.3861 205.145 34.3855 205.335C34.3719 205.488 34.4438 205.632 34.5486 205.743C34.6995 205.86 34.8834 205.881 35.0611 205.82C35.2979 205.738 35.5085 205.644 35.7061 205.513C35.9431 205.367 36.1801 205.222 36.4237 205.096C36.687 204.963 36.9566 204.912 37.2458 204.918C37.5612 204.935 37.8697 205.061 38.0926 205.259C38.3943 205.492 38.5773 205.831 38.6221 206.216C38.6735 206.621 38.5475 207.024 38.3361 207.371L38.8934 207.833L38.2208 208.573L37.6898 208.122C37.5317 208.24 37.3736 208.358 37.1893 208.464C37.0379 208.538 36.8865 208.611 36.7089 208.672C36.5904 208.713 36.4458 208.742 36.3208 208.764C36.2353 208.772 36.1367 208.807 36.0447 208.796L35.933 208.792L35.8898 207.836L36.1067 207.824C36.2711 207.789 36.429 207.734 36.5869 207.679C36.8173 207.579 37.0148 207.447 37.1731 207.266C37.3379 207.103 37.4437 206.898 37.4707 206.656C37.491 206.459 37.4061 206.277 37.2552 206.16C37.1044 206.043 36.9205 206.023 36.7428 206.084C36.506 206.166 36.2954 206.259 36.0781 206.398C35.841 206.543 35.604 206.688 35.3604 206.815C35.0972 206.948 34.8275 206.999 34.5384 206.993C34.2229 206.975 33.9341 206.843 33.6915 206.652C33.4161 206.43 33.2396 206.111 33.2013 205.744C33.1564 205.358 33.2628 204.962 33.5004 204.627L32.9366 204.146L33.6091 203.407L34.1664 203.869C34.3969 203.705 34.601 203.592 34.8379 203.51Z" fill="#EA8B24"/>
<path d="M51.4928 192.31C50.3676 192.762 49.3535 193.407 48.4573 194.203C47.047 195.492 52.4442 195.065 52.4442 195.065" fill="#EA8B24"/>
<path d="M57.5179 201.886C59.8948 200.063 60.207 196.597 58.2151 194.146C56.2233 191.695 52.6817 191.187 50.3048 193.01C47.9279 194.834 47.6157 198.299 49.6076 200.75C51.5994 203.201 55.1409 203.71 57.5179 201.886Z" fill="#EA8B24"/>
<path d="M56.0872 202.74C58.4641 200.916 58.7763 197.451 56.7845 195C54.7926 192.549 51.2511 192.041 48.8742 193.864C46.4972 195.688 46.1851 199.153 48.1769 201.604C50.1687 204.055 53.7103 204.564 56.0872 202.74Z" fill="#FFD008"/>
<path d="M54.3858 202.99C52.4121 203.672 50.0677 203.024 48.6204 201.264C46.8457 199.068 47.1244 195.973 49.2324 194.336C50.2863 193.55 51.6281 193.213 52.9157 193.423C55.7208 193.87 57.6591 196.284 57.4801 199.028C57.3843 200.286 56.7367 201.481 55.709 202.28C55.3072 202.587 54.8595 202.827 54.3858 202.99ZM48.7982 201.139C50.5007 203.255 53.5425 203.683 55.5911 202.13C56.5858 201.364 57.207 200.221 57.2763 199.014C57.4682 196.371 55.5822 194.044 52.8889 193.602C51.6473 193.397 50.391 193.725 49.37 194.479C47.3476 196.043 47.0956 199.024 48.7982 201.139Z" fill="#EA8B24"/>
<path d="M52.6929 195.401C52.8769 195.422 53.0476 195.469 53.1986 195.522L53.3561 195.595L52.9394 196.499C52.8869 196.475 52.8344 196.451 52.7819 196.426C52.6571 196.385 52.5192 196.369 52.4009 196.347C52.217 196.326 52.0263 196.349 51.8486 196.411C51.671 196.472 51.5064 196.571 51.3876 196.739C51.3018 196.874 51.2684 197.034 51.3206 197.185C51.3792 197.354 51.53 197.471 51.714 197.492C51.9505 197.537 52.1936 197.538 52.4303 197.519C52.713 197.506 52.9759 197.5 53.265 197.506C53.5542 197.511 53.8235 197.587 54.053 197.74C54.3089 197.906 54.5053 198.155 54.6031 198.438C54.7269 198.796 54.7258 199.177 54.5604 199.529C54.3818 199.908 54.0917 200.219 53.7165 200.412L53.9511 201.092L53.0037 201.419L52.7756 200.758C52.5717 200.808 52.3745 200.812 52.1774 200.817C51.9999 200.815 51.8422 200.806 51.6715 200.759C51.5532 200.737 51.4087 200.702 51.284 200.661C51.1855 200.632 51.1067 200.595 51.0279 200.559L50.9427 200.504L51.3922 199.631C51.4447 199.655 51.5037 199.698 51.5825 199.734C51.7335 199.788 51.8977 199.815 52.0752 199.817C52.3051 199.844 52.5615 199.818 52.7984 199.737C53.022 199.681 53.2328 199.523 53.3648 199.33C53.4639 199.169 53.5039 198.965 53.4255 198.802C53.3669 198.632 53.216 198.515 53.0321 198.494C52.7956 198.449 52.5524 198.449 52.3158 198.467C52.0331 198.48 51.7702 198.487 51.4875 198.5C51.1984 198.494 50.9291 198.418 50.6995 198.265C50.4437 198.1 50.2473 197.851 50.1693 197.561C50.052 197.221 50.0794 196.853 50.2315 196.526C50.3968 196.173 50.687 195.862 51.0424 195.675L50.8078 194.996L51.775 194.662L52.0096 195.341C52.1935 195.362 52.4367 195.363 52.6929 195.401Z" fill="#EA8B24"/>
<path d="M38.0248 181.585L37.8901 182.667L38.4374 182.076" fill="#FCD11A"/>
<path d="M50.3842 183.773C50.6294 182.044 48.0347 180.347 44.5888 179.982C41.1428 179.618 38.1505 180.724 37.9053 182.454C37.6601 184.183 40.2548 185.881 43.7007 186.245C47.1467 186.609 50.139 185.503 50.3842 183.773Z" fill="#FCD11A"/>
<path d="M50.4953 182.897L50.3809 183.781L50.0463 183.58L50.4953 182.897Z" fill="#FCD11A"/>
<path d="M50.5101 182.898C50.7553 181.169 48.1606 179.472 44.7147 179.107C41.2687 178.743 38.2764 179.849 38.0312 181.579C37.786 183.308 40.3807 185.006 43.8267 185.37C47.2726 185.734 50.2649 184.628 50.5101 182.898Z" fill="#FEDE17"/>
<path d="M49.6937 182.814C49.4854 184.322 46.9132 185.126 43.9303 184.805C40.9474 184.483 38.6378 183.169 38.8657 181.654C39.0937 180.139 41.6858 179.265 44.6885 179.58C47.6517 179.908 49.9019 181.306 49.6937 182.814Z" fill="#FEA500"/>
<path d="M44.833 181.853C44.8903 182.467 44.6527 182.802 43.7848 182.912C42.9169 183.021 42.2146 182.715 41.8414 182.21L41.1577 182.277L40.9616 181.901L41.6454 181.834C41.5216 181.476 41.5819 181.075 41.8063 180.765L42.9032 180.999C42.7317 181.206 42.652 181.487 42.6972 181.746L43.5256 181.65C43.4683 181.036 43.6797 180.688 44.5475 180.579C45.4154 180.469 46.1245 180.731 46.4974 181.299L46.8985 181.245L47.1011 181.64L46.6737 181.682C46.7715 181.965 46.7246 182.277 46.5464 182.528L45.4625 182.332C45.5813 182.165 45.6278 181.98 45.6087 181.796L44.833 181.853ZM43.3463 182.282C43.537 182.258 43.6029 182.193 43.6035 182.003L42.8343 182.078C42.9521 182.228 43.1359 182.312 43.3463 182.282ZM44.7551 181.5L45.4981 181.412C45.4 181.256 45.2162 181.171 45.0058 181.202L44.986 181.209C44.8348 181.219 44.7492 181.29 44.7551 181.5Z" fill="#FEDE17"/>
<path d="M36.2311 220.408C39.5701 219.255 41.6369 216.467 40.8476 214.181C40.0582 211.896 36.7116 210.977 33.3727 212.13C30.0337 213.284 27.9669 216.071 28.7562 218.357C29.5456 220.643 32.8922 221.561 36.2311 220.408Z" fill="#FCD11A"/>
<path d="M28.7562 218.357L28.3453 217.167L29.3426 217.894L28.7562 218.357Z" fill="#FCD11A"/>
<path d="M40.459 212.984L40.8699 214.174L40.0919 214.442L40.3393 213.286L40.459 212.984Z" fill="#FCD11A"/>
<path d="M35.8381 219.27C39.177 218.117 41.2439 215.329 40.4545 213.043C39.6652 210.757 36.3185 209.839 32.9796 210.992C29.6406 212.145 27.5738 214.933 28.3631 217.219C29.1525 219.505 32.4991 220.423 35.8381 219.27Z" fill="#FEDE17"/>
<path d="M35.6281 218.589C38.4392 217.619 40.1821 215.28 39.521 213.366C38.8599 211.451 36.0452 210.686 33.2341 211.657C30.423 212.628 28.6801 214.967 29.3412 216.881C30.0022 218.795 32.817 219.56 35.6281 218.589Z" fill="#FEA500"/>
<path d="M36.9764 212.913C37.0566 213.001 37.1146 213.096 37.1281 213.208L37.1416 213.319L36.0302 213.703C36.0213 213.677 36.0256 213.617 36.0167 213.591C35.9899 213.514 35.9409 213.444 35.8696 213.382C35.7583 213.275 35.6337 213.203 35.5047 213.189C35.3133 213.139 35.1177 213.149 34.9398 213.211C34.762 213.272 34.6154 213.352 34.4777 213.457C34.3489 213.588 34.3179 213.715 34.407 213.829C34.5051 213.969 34.6387 214.067 34.7945 214.158C34.9503 214.249 35.115 214.366 35.2797 214.483C35.4355 214.574 35.5292 214.773 35.5161 214.951C35.4854 215.222 35.3479 215.473 35.1524 215.627C34.8371 215.939 34.4727 216.18 34.0726 216.318C33.637 216.498 33.1879 216.566 32.712 216.557L32.1746 217.09L31.2982 216.929L31.8134 216.404C31.6754 216.364 31.5508 216.292 31.4172 216.193C31.3238 216.139 31.2436 216.05 31.1634 215.962C31.1144 215.892 31.0653 215.822 31.0385 215.745C31.0207 215.693 31.0028 215.641 30.9849 215.59L30.9893 215.53L32.1006 215.146C32.0963 215.206 32.1052 215.232 32.1231 215.283C32.1588 215.387 32.239 215.475 32.3103 215.537C32.4528 215.662 32.6308 215.745 32.8132 215.769C33.0489 215.803 33.298 215.804 33.5203 215.727C33.7292 215.684 33.9114 215.563 34.0847 215.417C34.2135 215.285 34.2222 215.167 34.1553 215.045C34.0572 214.905 33.9237 214.806 33.7679 214.715C33.6121 214.624 33.4251 214.515 33.2826 214.391C33.149 214.292 33.0553 214.093 33.0684 213.915C33.1214 213.636 33.2589 213.386 33.4544 213.231C33.7564 212.953 34.0985 212.719 34.4986 212.581C34.8898 212.417 35.3389 212.349 35.7703 212.374L36.2855 211.848L37.1264 212.05L36.589 212.583C36.7359 212.648 36.8784 212.773 36.9764 212.913Z" fill="#FEDE17"/>
<path d="M35.454 218.157C38.7929 217.004 40.8598 214.217 40.0704 211.931C39.2811 209.645 35.9344 208.727 32.5955 209.88C29.2566 211.033 27.1897 213.821 27.979 216.107C28.7684 218.392 32.115 219.31 35.454 218.157Z" fill="#FCD11A"/>
<path d="M27.979 216.107L27.5681 214.917L28.5654 215.643L27.979 216.107Z" fill="#FCD11A"/>
<path d="M39.6818 210.733L40.0927 211.923L39.3148 212.192L39.5622 211.035L39.6818 210.733Z" fill="#FCD11A"/>
<path d="M35.0609 217.019C38.3999 215.866 40.4667 213.078 39.6774 210.793C38.888 208.507 35.5414 207.589 32.2024 208.742C28.8635 209.895 26.7966 212.683 27.586 214.968C28.3753 217.254 31.722 218.172 35.0609 217.019Z" fill="#FEDE17"/>
<path d="M34.8509 216.339C37.662 215.368 39.4049 213.029 38.7439 211.115C38.0828 209.201 35.268 208.436 32.4569 209.407C29.6458 210.378 27.9029 212.716 28.564 214.631C29.2251 216.545 32.0398 217.31 34.8509 216.339Z" fill="#FEA500"/>
<path d="M36.1992 210.662C36.2794 210.75 36.3374 210.846 36.3509 210.957L36.3644 211.068L35.253 211.452C35.2441 211.426 35.2485 211.367 35.2395 211.341C35.2127 211.263 35.1637 211.193 35.0925 211.131C34.9811 211.025 34.8565 210.952 34.7275 210.939C34.5362 210.889 34.3405 210.899 34.1627 210.96C33.9759 210.996 33.8382 211.101 33.7005 211.207C33.5717 211.338 33.563 211.457 33.6298 211.578C33.7279 211.718 33.8704 211.843 34.0173 211.908C34.1731 211.999 34.3378 212.116 34.5025 212.232C34.6583 212.323 34.752 212.523 34.7389 212.701C34.7082 212.972 34.5707 213.222 34.3752 213.377C34.0599 213.688 33.6955 213.93 33.2955 214.068C32.8598 214.247 32.4107 214.316 31.9348 214.306L31.3974 214.839L30.521 214.679L31.0362 214.153C30.8983 214.114 30.7736 214.041 30.6401 213.943C30.5466 213.888 30.4664 213.8 30.3862 213.712C30.3372 213.642 30.2882 213.572 30.2614 213.494C30.2435 213.443 30.2256 213.391 30.2078 213.339L30.2121 213.28L31.3235 212.896C31.3191 212.955 31.328 212.981 31.3459 213.033C31.3816 213.137 31.4618 213.225 31.5331 213.287C31.6756 213.411 31.8536 213.495 32.036 213.519C32.2807 213.579 32.5208 213.554 32.752 213.503C32.961 213.46 33.1432 213.339 33.3164 213.192C33.4452 213.061 33.4762 212.934 33.387 212.82C33.289 212.68 33.1554 212.582 33.0086 212.517C32.8216 212.408 32.6569 212.291 32.5144 212.166C32.3808 212.068 32.2871 211.868 32.3002 211.69C32.3531 211.411 32.4907 211.161 32.6861 211.007C32.9792 210.703 33.3303 210.495 33.7304 210.357C34.1215 210.193 34.5706 210.124 35.0021 210.149L35.5172 209.624L36.3581 209.826L35.8207 210.359C35.9587 210.398 36.1012 210.522 36.1992 210.662Z" fill="#FEDE17"/>
<path d="M34.6143 215.726C37.9532 214.573 40.02 211.785 39.2307 209.499C38.4414 207.214 35.0947 206.296 31.7558 207.449C28.4168 208.602 26.35 211.389 27.1393 213.675C27.9287 215.961 31.2753 216.879 34.6143 215.726Z" fill="#FCD11A"/>
<path d="M27.1394 213.675L26.7195 212.459L27.7169 213.186L27.1394 213.675Z" fill="#FCD11A"/>
<path d="M38.8332 208.276L39.253 209.492L38.4751 209.76L38.7225 208.604L38.8332 208.276Z" fill="#FCD11A"/>
<path d="M34.2212 214.588C37.5602 213.435 39.627 210.647 38.8377 208.361C38.0483 206.076 34.7017 205.157 31.3628 206.31C28.0238 207.464 25.957 210.251 26.7463 212.537C27.5357 214.823 30.8823 215.741 34.2212 214.588Z" fill="#FEDE17"/>
<path d="M34.0113 213.908C36.8224 212.937 38.5653 210.598 37.9042 208.684C37.2431 206.769 34.4284 206.005 31.6173 206.975C28.8062 207.946 27.0633 210.285 27.7243 212.199C28.3854 214.113 31.2002 214.878 34.0113 213.908Z" fill="#FEA500"/>
<path d="M35.3506 208.205C35.4308 208.293 35.4887 208.389 35.5022 208.5L35.5157 208.611L34.4044 208.995C34.3955 208.969 34.3998 208.91 34.3909 208.884C34.3641 208.806 34.3151 208.736 34.2438 208.674C34.1325 208.568 34.0078 208.495 33.8788 208.481C33.6875 208.432 33.4918 208.441 33.314 208.503C33.1273 208.538 32.9896 208.644 32.8518 208.749C32.7231 208.881 32.7143 208.999 32.7812 209.121C32.8793 209.261 33.0128 209.36 33.1686 209.451C33.3244 209.541 33.4892 209.658 33.6539 209.775C33.8097 209.866 33.9034 210.065 33.8903 210.244C33.8596 210.515 33.722 210.765 33.5266 210.919C33.2113 211.231 32.8469 211.472 32.4468 211.611C32.0112 211.79 31.5621 211.858 31.0862 211.849L30.5488 212.382L29.6724 212.221L30.1876 211.696C30.0496 211.657 29.925 211.584 29.7914 211.485C29.6979 211.431 29.6178 211.343 29.5376 211.255C29.4886 211.185 29.4395 211.115 29.4127 211.037C29.3949 210.985 29.377 210.934 29.3591 210.882L29.3635 210.822L30.4748 210.439C30.4927 210.49 30.4794 210.524 30.4973 210.576C30.533 210.679 30.6132 210.767 30.6844 210.83C30.8269 210.954 31.005 211.037 31.1874 211.061C31.4321 211.121 31.6722 211.096 31.9034 211.046C32.1124 211.002 32.2945 210.881 32.4678 210.735C32.5966 210.603 32.6275 210.477 32.5384 210.363C32.4404 210.223 32.3068 210.125 32.151 210.034C31.9952 209.943 31.8082 209.833 31.6657 209.709C31.5322 209.61 31.4385 209.411 31.4516 209.233C31.5045 208.954 31.642 208.704 31.8375 208.549C32.1306 208.246 32.4817 208.038 32.8817 207.899C33.2729 207.735 33.722 207.667 34.1534 207.692L34.6686 207.166L35.5095 207.368L34.9721 207.901C35.119 207.966 35.2525 208.065 35.3506 208.205Z" fill="#FEDE17"/>
<path d="M33.8461 213.501C37.185 212.348 39.2519 209.561 38.4625 207.275C37.6732 204.989 34.3265 204.071 30.9876 205.224C27.6486 206.377 25.5818 209.165 26.3711 211.451C27.1605 213.736 30.5071 214.654 33.8461 213.501Z" fill="#FCD11A"/>
<path d="M26.3711 211.451L25.9513 210.235L26.9486 210.962L26.3711 211.451Z" fill="#FCD11A"/>
<path d="M38.065 206.051L38.4848 207.267L37.7069 207.536L37.9543 206.379L38.065 206.051Z" fill="#FCD11A"/>
<path d="M33.4441 212.337C36.783 211.184 38.8499 208.397 38.0605 206.111C37.2712 203.825 33.9245 202.907 30.5856 204.06C27.2467 205.213 25.1798 208.001 25.9692 210.287C26.7585 212.572 30.1051 213.49 33.4441 212.337Z" fill="#FEDE17"/>
<path d="M33.2341 211.657C36.0452 210.686 37.7881 208.348 37.127 206.433C36.466 204.519 33.6512 203.754 30.8401 204.725C28.029 205.696 26.2861 208.035 26.9472 209.949C27.6083 211.863 30.423 212.628 33.2341 211.657Z" fill="#FEA500"/>
<path d="M34.5824 205.98C34.6625 206.068 34.7205 206.164 34.734 206.275L34.7475 206.387L33.6362 206.77C33.6272 206.744 33.6316 206.685 33.6227 206.659C33.5959 206.582 33.5468 206.512 33.4756 206.449C33.3642 206.343 33.2396 206.27 33.1106 206.257C32.9193 206.207 32.7236 206.217 32.5458 206.278C32.359 206.314 32.2213 206.419 32.0836 206.525C31.9548 206.656 31.9461 206.775 32.013 206.897C32.111 207.036 32.2446 207.135 32.4004 207.226C32.5562 207.317 32.7209 207.434 32.8857 207.551C33.0415 207.642 33.1351 207.841 33.1221 208.019C33.0913 208.29 32.9538 208.54 32.7583 208.695C32.443 209.006 32.0787 209.248 31.6786 209.386C31.243 209.565 30.7939 209.634 30.318 209.624L29.8117 210.176L28.9353 210.015L29.4505 209.49C29.3126 209.45 29.1879 209.378 29.0543 209.279C28.9609 209.224 28.8807 209.136 28.8005 209.048C28.7515 208.978 28.7024 208.908 28.6756 208.831C28.6578 208.779 28.6399 208.727 28.622 208.676L28.6264 208.616L29.7378 208.232C29.7334 208.292 29.7423 208.318 29.7602 208.369C29.7959 208.473 29.8761 208.561 29.9474 208.623C30.0899 208.748 30.2679 208.831 30.4503 208.855C30.695 208.915 30.9351 208.89 31.1663 208.839C31.3753 208.796 31.5575 208.675 31.7307 208.528C31.8595 208.397 31.8682 208.278 31.8013 208.157C31.7033 208.017 31.5697 207.918 31.4228 207.853C31.2448 207.77 31.0801 207.653 30.9154 207.536C30.7818 207.438 30.6881 207.238 30.7012 207.06C30.7541 206.781 30.8917 206.531 31.0871 206.377C31.3802 206.073 31.7313 205.865 32.1314 205.727C32.5225 205.563 32.9716 205.494 33.4031 205.519L33.9182 204.994L34.7591 205.195L34.2217 205.728C34.3507 205.742 34.4843 205.84 34.5824 205.98Z" fill="#FEDE17"/>
<path d="M29.2793 211.083C32.6182 209.93 34.6851 207.142 33.8957 204.857C33.1064 202.571 29.7598 201.653 26.4208 202.806C23.0819 203.959 21.015 206.747 21.8044 209.032C22.5937 211.318 25.9404 212.236 29.2793 211.083Z" fill="#FCD11A"/>
<path d="M21.8044 209.032L21.3935 207.842L22.3686 208.577L21.8044 209.032Z" fill="#FCD11A"/>
<path d="M33.485 203.667L33.8959 204.857L33.1402 205.118L33.3653 203.969L33.485 203.667Z" fill="#FCD11A"/>
<path d="M28.8863 209.945C32.2252 208.792 34.2921 206.004 33.5027 203.719C32.7134 201.433 29.3667 200.515 26.0278 201.668C22.6889 202.821 20.622 205.608 21.4114 207.894C22.2007 210.18 25.5473 211.098 28.8863 209.945Z" fill="#FEDE17"/>
<path d="M28.654 209.273C31.4651 208.302 33.208 205.963 32.547 204.049C31.8859 202.134 29.0711 201.369 26.26 202.34C23.4489 203.311 21.706 205.65 22.3671 207.564C23.0282 209.478 25.8429 210.243 28.654 209.273Z" fill="#FEA500"/>
<path d="M30.0246 203.588C30.1048 203.676 30.1627 203.772 30.1762 203.883L30.1897 203.994L29.0784 204.378C29.0695 204.352 29.0738 204.293 29.0649 204.267C29.0381 204.189 28.9891 204.119 28.9178 204.057C28.8065 203.951 28.6818 203.878 28.5528 203.865C28.3615 203.815 28.1658 203.825 27.988 203.886C27.8013 203.921 27.6635 204.027 27.5258 204.132C27.397 204.264 27.3883 204.383 27.4552 204.504C27.5533 204.644 27.6868 204.743 27.8426 204.834C27.9984 204.925 28.1632 205.041 28.3279 205.158C28.4837 205.249 28.5774 205.448 28.5643 205.627C28.5335 205.898 28.396 206.148 28.2006 206.302C27.8852 206.614 27.5209 206.856 27.1208 206.994C26.6852 207.173 26.2361 207.241 25.7602 207.232L25.2228 207.765L24.3464 207.604L24.8616 207.079C24.7236 207.04 24.599 206.967 24.4654 206.868C24.3719 206.814 24.2918 206.726 24.2116 206.638C24.1625 206.568 24.1135 206.498 24.0867 206.42C24.0689 206.368 24.051 206.317 24.0331 206.265L24.0375 206.206L25.1488 205.822C25.1445 205.881 25.1534 205.907 25.1713 205.959C25.207 206.062 25.2872 206.15 25.3584 206.213C25.5009 206.337 25.679 206.42 25.8613 206.444C26.106 206.505 26.3462 206.48 26.5774 206.429C26.7864 206.385 26.9685 206.265 27.1418 206.118C27.2706 205.987 27.3015 205.86 27.2124 205.746C27.1143 205.606 26.9808 205.508 26.8339 205.443C26.6781 205.352 26.4912 205.242 26.3486 205.118C26.2151 205.019 26.1214 204.82 26.1345 204.642C26.1874 204.363 26.325 204.113 26.5204 203.958C26.8225 203.68 27.1646 203.447 27.5424 203.316C27.9336 203.152 28.3827 203.084 28.8141 203.108L29.3515 202.575L30.1924 202.777L29.655 203.31C29.7618 203.331 29.9043 203.456 30.0246 203.588Z" fill="#FEDE17"/>
<path d="M103.806 187.755C103.875 187.889 103.974 188.082 104.098 188.332C104.359 188.854 104.734 189.622 105.192 190.603C106.108 192.567 107.354 195.385 108.675 198.8C111.237 205.421 114.071 214.267 115.322 223.468L115.439 224.359C116.627 233.902 115.803 241.821 110.918 247.155C106.186 252.322 97.5106 255.206 82.6625 254.591L81.2057 254.521C65.465 253.651 55.7997 249.93 50.7446 244.345C45.8773 238.966 45.1835 231.737 47.657 223.301L47.9061 222.481C50.6632 213.715 58.2421 203.932 65.1878 196.302C68.6522 192.496 71.9433 189.243 74.3683 186.941C75.5806 185.79 76.5758 184.878 77.2676 184.253C77.6135 183.941 77.8835 183.701 78.0667 183.539C78.104 183.506 78.1374 183.476 78.1674 183.45L103.806 187.755Z" fill="#E1D9A5" stroke="#CBC468"/>
<path d="M104.136 187.304C104.136 187.304 120.196 176.618 115.863 169.09C111.531 161.559 101.213 163.56 95.8257 160.918C90.4381 158.279 61.6377 153.89 78.0216 182.917L104.136 187.304Z" fill="#D8E78B"/>
<path d="M105.602 189.209C105.553 189.204 105.502 189.193 105.454 189.176C105.297 189.125 89.6126 184.028 76.2267 182.849C76.2182 182.849 76.2068 182.849 76.1983 182.846C75.7719 182.794 75.4583 182.401 75.4961 181.953C75.5339 181.497 75.9249 181.161 76.3682 181.199C89.9416 182.398 105.785 187.546 105.945 187.6C106.367 187.737 106.601 188.204 106.464 188.638C106.343 189.023 105.977 189.256 105.602 189.209Z" fill="#B39B7B"/>
<path d="M59.6939 172.256C62.1509 170.032 64.5705 169.251 66.9239 169.787L67.1511 169.844C70.2543 170.662 72.7937 173.682 74.6059 176.685C75.9522 178.917 76.852 181.061 77.2492 182.085L77.4764 182.697L77.4774 182.7C77.4923 182.742 77.499 182.788 77.4964 182.835C77.4724 183.181 77.1625 187.516 76.0285 192.126C75.4613 194.431 74.693 196.784 73.6639 198.735C72.6945 200.572 71.5233 201.997 70.1241 202.727L69.8403 202.862C69.2672 203.117 68.6777 203.253 68.0683 203.277L67.9472 203.279C66.416 203.3 64.7003 202.606 62.8193 201.098L62.441 200.785C59.6645 198.429 58.5959 196.113 58.9896 193.882L59.0323 193.665C59.5278 191.406 61.5527 189.393 64.1831 187.695C66.7912 186.011 69.8852 184.706 72.3299 183.824L72.2122 182.855C69.5129 182.591 66.0634 182.102 63.1347 181.211C61.6699 180.765 60.3571 180.224 59.3389 179.576C58.3808 178.965 57.7238 178.285 57.4138 177.534L57.3565 177.384C56.89 176.039 57.4199 174.457 59.2993 172.625L59.6939 172.256ZM76.1805 183.258C73.8957 183.892 70.0836 185.199 66.6952 186.984C65.0013 187.877 63.3952 188.898 62.1364 190.026C60.8837 191.149 59.9295 192.419 59.6237 193.815C59.1758 195.856 60.2028 197.9 62.3688 199.877L62.8174 200.271L62.8174 200.272C65.2686 202.351 67.5869 203.156 69.6112 202.253L69.6122 202.254C70.8767 201.692 71.9092 200.532 72.7538 199.107C73.6029 197.674 74.2937 195.92 74.851 194.088C75.9172 190.584 76.5123 186.727 76.7738 184.129L76.8166 184.118L76.8125 183.729L76.3045 183.71L76.1805 183.258ZM64.9343 170.313C63.4126 170.465 61.8981 171.203 60.4139 172.465L60.0849 172.754C59.2153 173.541 58.5729 174.295 58.1967 175.014C57.8412 175.693 57.7064 176.376 57.8869 177.024L57.9274 177.152C58.2684 178.137 59.259 178.901 60.4778 179.506C61.7223 180.123 63.3235 180.632 65.0686 181.045C68.5626 181.871 72.7224 182.331 75.9779 182.472L76.7644 182.506L76.4637 181.78C75.885 180.38 74.752 177.897 73.1675 175.602C71.6458 173.398 69.6443 171.272 67.2405 170.541L67.0064 170.475L66.6167 170.385C66.2259 170.31 65.831 170.274 65.4339 170.28L64.934 170.287L64.9343 170.313Z" fill="#7789C9" stroke="#CBC468"/>
<path d="M115.885 168.756C115.885 168.756 119.023 174.729 112.481 175.64C105.939 176.55 100.497 170.429 95.3091 171.878C90.121 173.328 75.0052 176.06 72.9937 168.683C70.9794 161.303 80.2009 157.667 86.3385 158.489C92.4761 159.311 114.127 161.721 115.885 168.756Z" fill="#938352"/>
<path opacity="0.03" d="M82.9687 272.748C120.026 272.225 149.997 265.189 149.91 257.031C149.824 248.874 119.713 242.685 82.6553 243.207C45.5979 243.73 15.6272 250.766 15.7137 258.923C15.8002 267.081 45.9113 273.27 82.9687 272.748Z" fill="#060706"/>
<path d="M101.566 240.161L101.626 246.914C101.653 249.973 93.3914 252.559 83.1703 252.686C72.9493 252.812 64.6434 250.434 64.6166 247.372L64.5563 240.619L101.566 240.161Z" fill="#FFD200"/>
<path d="M101.641 248.299L101.701 255.052C101.728 258.111 93.4664 260.697 83.2453 260.823C73.0243 260.95 64.7184 258.571 64.6916 255.509L64.6313 248.756L101.641 248.299Z" fill="#FFD200"/>
<path opacity="0.08" d="M101.641 248.299L101.701 255.052C101.728 258.111 93.4664 260.697 83.2453 260.823C73.0243 260.95 64.7184 258.571 64.6916 255.509L64.6313 248.756L101.641 248.299Z" fill="#000001"/>
<path d="M101.286 248.087C101.259 245.055 93.029 242.697 82.9039 242.822C72.7788 242.947 64.5927 245.506 64.6197 248.538C64.6467 251.57 72.8767 253.927 83.0018 253.803C93.1269 253.678 101.313 251.119 101.286 248.087Z" fill="#FFD200"/>
<path opacity="0.08" d="M101.566 240.161L101.626 246.914C101.653 249.973 93.3914 252.559 83.1703 252.686C72.9493 252.812 64.6434 250.434 64.6166 247.372L64.5563 240.619L101.566 240.161Z" fill="#000001"/>
<path d="M100.149 232.107L100.21 238.86C100.236 241.919 91.9745 244.505 81.7535 244.631C71.5325 244.758 63.2266 242.379 63.1998 239.317L63.1395 232.564L100.149 232.107Z" fill="#FFD200"/>
<path d="M101.422 223.95L101.483 230.703C101.51 233.762 93.2478 236.348 83.0268 236.475C72.8057 236.601 64.4998 234.223 64.473 231.16L64.4127 224.408L101.422 223.95Z" fill="#FFD200"/>
<path d="M101.218 240.023C101.19 236.99 92.9605 234.633 82.8354 234.758C72.7103 234.882 64.5242 237.441 64.5512 240.474C64.5782 243.506 72.8082 245.863 82.9333 245.739C93.0584 245.614 101.245 243.055 101.218 240.023Z" fill="#FFD200"/>
<path opacity="0.08" d="M100.149 232.107L100.21 238.86C100.236 241.919 91.9745 244.505 81.7535 244.631C71.5325 244.758 63.2266 242.379 63.1998 239.317L63.1395 232.564L100.149 232.107Z" fill="#000001"/>
<path d="M99.8105 232.045C99.7835 229.012 91.5536 226.655 81.4284 226.78C71.3033 226.904 63.1172 229.463 63.1442 232.496C63.1713 235.528 71.4012 237.885 81.5263 237.761C91.6514 237.636 99.8376 235.077 99.8105 232.045Z" fill="#FFD200"/>
<path opacity="0.08" d="M101.422 223.95L101.483 230.703C101.51 233.762 93.2478 236.348 83.0268 236.475C72.8057 236.601 64.4998 234.223 64.473 231.16L64.4127 224.408L101.422 223.95Z" fill="#000001"/>
<path d="M101.425 223.957C101.398 220.925 93.088 218.569 82.8641 218.694C72.6402 218.82 64.374 221.38 64.4011 224.413C64.4281 227.445 72.7381 229.801 82.962 229.675C93.1859 229.549 101.452 226.989 101.425 223.957Z" fill="#FFD200"/>
<path d="M144.538 238.182L144.607 245.741C144.638 249.166 135.388 252.058 123.95 252.201C112.511 252.342 103.211 249.68 103.181 246.255L103.112 238.696L144.538 238.185L144.538 238.182Z" fill="#FFD200"/>
<path d="M144.621 247.293L144.689 254.852C144.72 258.276 135.471 261.168 124.032 261.312C112.593 261.453 103.294 258.79 103.263 255.366L103.194 247.807L144.621 247.296L144.621 247.293Z" fill="#FFD200"/>
<path opacity="0.08" d="M144.621 247.293L144.689 254.852C144.72 258.276 135.471 261.168 124.032 261.312C112.593 261.453 103.294 258.79 103.263 255.366L103.194 247.807L144.621 247.296L144.621 247.293Z" fill="#000001"/>
<path d="M144.228 247.052C144.198 243.658 134.986 241.02 123.652 241.16C112.318 241.299 103.155 244.163 103.185 247.557C103.216 250.951 112.428 253.589 123.762 253.45C135.095 253.31 144.259 250.446 144.228 247.052Z" fill="#FFD200"/>
<path opacity="0.08" d="M144.538 238.182L144.607 245.741C144.638 249.166 135.388 252.058 123.95 252.201C112.511 252.342 103.211 249.68 103.181 246.255L103.112 238.696L144.538 238.185L144.538 238.182Z" fill="#000001"/>
<path d="M142.949 229.168L143.018 236.728C143.049 240.152 133.8 243.044 122.361 243.188C110.922 243.329 101.623 240.666 101.592 237.242L101.523 229.682L142.949 229.171L142.949 229.168Z" fill="#FFD200"/>
<path d="M144.374 220.039L144.443 227.599C144.474 231.023 135.224 233.915 123.786 234.059C112.347 234.2 103.047 231.537 103.017 228.112L102.948 220.553L144.374 220.042L144.374 220.039Z" fill="#FFD200"/>
<path d="M144.15 238.028C144.12 234.634 134.907 231.996 123.573 232.135C112.24 232.275 103.076 235.139 103.107 238.533C103.137 241.927 112.349 244.565 123.683 244.425C135.017 244.286 144.18 241.422 144.15 238.028Z" fill="#FFD200"/>
<path opacity="0.08" d="M142.949 229.168L143.018 236.728C143.049 240.152 133.8 243.044 122.361 243.188C110.922 243.329 101.623 240.666 101.592 237.242L101.523 229.682L142.949 229.171L142.949 229.168Z" fill="#000001"/>
<path d="M142.576 229.095C142.546 225.701 133.334 223.063 122 223.203C110.666 223.342 101.503 226.206 101.533 229.6C101.563 232.994 110.776 235.632 122.11 235.492C133.443 235.353 142.607 232.489 142.576 229.095Z" fill="#FFD200"/>
<path opacity="0.08" d="M144.374 220.039L144.443 227.599C144.474 231.023 135.224 233.915 123.786 234.059C112.347 234.2 103.047 231.537 103.017 228.112L102.948 220.553L144.374 220.042L144.374 220.039Z" fill="#000001"/>
<path d="M144.382 220.045C144.352 216.651 135.051 214.014 123.607 214.155C112.164 214.295 102.912 217.161 102.942 220.554C102.972 223.948 112.274 226.585 123.717 226.444C135.16 226.304 144.413 223.438 144.382 220.045Z" fill="#FFD200"/>
<path d="M107.978 210.918L108.07 218.476C108.112 221.901 117.419 224.531 128.858 224.352C140.296 224.171 149.536 221.247 149.494 217.822L149.403 210.263L107.978 210.92L107.978 210.918Z" fill="#FFD200"/>
<path d="M106.36 201.831L106.452 209.39C106.494 212.815 115.801 215.445 127.24 215.266C138.678 215.085 147.918 212.16 147.876 208.736L147.785 201.177L106.36 201.834L106.36 201.831Z" fill="#FFD200"/>
<path opacity="0.08" d="M107.978 210.918L108.07 218.476C108.112 221.901 117.419 224.531 128.858 224.352C140.296 224.171 149.536 221.247 149.494 217.822L149.403 210.263L107.978 210.92L107.978 210.918Z" fill="#000001"/>
<path d="M128.96 216.641C140.293 216.461 149.447 213.564 149.405 210.17C149.363 206.776 140.142 204.171 128.809 204.352C117.475 204.532 108.322 207.429 108.363 210.822C108.405 214.216 117.627 216.821 128.96 216.641Z" fill="#FFD200"/>
<path opacity="0.08" d="M106.36 201.831L106.452 209.39C106.494 212.815 115.801 215.445 127.24 215.266C138.678 215.085 147.918 212.16 147.876 208.736L147.785 201.177L106.36 201.834L106.36 201.831Z" fill="#000001"/>
<path d="M127.16 207.642C138.603 207.46 147.846 204.562 147.804 201.168C147.762 197.775 138.452 195.171 127.009 195.353C115.566 195.535 106.323 198.433 106.365 201.827C106.407 205.221 115.717 207.824 127.16 207.642Z" fill="#FFD200"/>
<path d="M61.2014 238.793L61.2702 246.352C61.3009 249.777 52.0516 252.669 40.6129 252.812C29.1742 252.953 19.8746 250.29 19.8439 246.866L19.7751 239.307L61.2014 238.796L61.2014 238.793Z" fill="#FFD200"/>
<path d="M61.281 247.904L61.3499 255.463C61.3805 258.887 52.1313 261.779 40.6926 261.923C29.2539 262.064 19.9542 259.401 19.9236 255.977L19.8547 248.418L61.281 247.907L61.281 247.904Z" fill="#FFD200"/>
<path opacity="0.08" d="M61.281 247.904L61.3499 255.463C61.3805 258.887 52.1313 261.779 40.6926 261.923C29.2539 262.064 19.9542 259.401 19.9236 255.977L19.8547 248.418L61.281 247.907L61.281 247.904Z" fill="#000001"/>
<path d="M60.8854 247.665C60.8552 244.271 51.6428 241.633 40.3091 241.773C28.9754 241.912 19.8121 244.776 19.8423 248.17C19.8726 251.564 29.0849 254.202 40.4186 254.062C51.7524 253.923 60.9157 251.059 60.8854 247.665Z" fill="#FFD200"/>
<path opacity="0.08" d="M61.2014 238.793L61.2702 246.352C61.3009 249.777 52.0516 252.669 40.6129 252.812C29.1742 252.953 19.8746 250.29 19.8439 246.866L19.7751 239.307L61.2014 238.796L61.2014 238.793Z" fill="#000001"/>
<path d="M59.6126 229.777L59.6814 237.336C59.7121 240.76 50.4628 243.652 39.0241 243.796C27.5854 243.937 18.2858 241.274 18.2551 237.85L18.1863 230.291L59.6126 229.78L59.6126 229.777Z" fill="#FFD200"/>
<path d="M61.0372 220.647L61.1061 228.207C61.1367 231.631 51.8875 234.523 40.4488 234.667C29.0101 234.808 19.7105 232.145 19.6798 228.72L19.611 221.161L61.0373 220.65L61.0372 220.647Z" fill="#FFD200"/>
<path d="M60.8039 238.638C60.7736 235.244 51.5613 232.606 40.2276 232.745C28.8938 232.885 19.7305 235.749 19.7608 239.143C19.791 242.536 29.0034 245.175 40.3371 245.035C51.6708 244.896 60.8341 242.032 60.8039 238.638Z" fill="#FFD200"/>
<path opacity="0.08" d="M59.6126 229.777L59.6814 237.336C59.7121 240.76 50.4628 243.652 39.0241 243.796C27.5854 243.937 18.2858 241.274 18.2551 237.85L18.1863 230.291L59.6126 229.78L59.6126 229.777Z" fill="#000001"/>
<path d="M59.2315 229.699C59.2018 226.305 49.9899 223.669 38.6562 223.81C27.3224 223.951 18.1588 226.816 18.1885 230.21C18.2182 233.604 27.4301 236.241 38.7638 236.1C50.0975 235.958 59.2612 233.093 59.2315 229.699Z" fill="#FFD200"/>
<path opacity="0.08" d="M61.0372 220.647L61.1061 228.207C61.1367 231.631 51.8875 234.523 40.4488 234.667C29.0101 234.808 19.7105 232.145 19.6798 228.72L19.611 221.161L61.0373 220.65L61.0372 220.647Z" fill="#000001"/>
<path opacity="0.08" d="M60.6696 263.056C69.1611 262.936 75.9697 255.753 75.877 247.011C75.7842 238.27 68.8253 231.28 60.3338 231.4C51.8422 231.52 45.0337 238.703 45.1264 247.445C45.2192 256.186 52.1781 263.176 60.6696 263.056Z" fill="#000001"/>
<path opacity="0.08" d="M50.1042 231.524C50.1042 231.524 34.0617 236.808 36.9136 261.865C36.9136 261.865 47.4108 262.083 52.3809 260.695C56.8218 259.454 50.107 231.524 50.107 231.524L50.1042 231.524Z" fill="#000001"/>
<path d="M61.0393 220.654C61.0091 217.261 51.7078 214.624 40.2643 214.764C28.8208 214.905 19.5686 217.77 19.5989 221.164C19.6291 224.558 28.9304 227.195 40.3738 227.054C51.8173 226.913 61.0696 224.048 61.0393 220.654Z" fill="#FFD200"/>
<path d="M60.6696 263.056C69.1611 262.936 75.9697 255.753 75.877 247.011C75.7842 238.27 68.8253 231.28 60.3338 231.4C51.8422 231.52 45.0337 238.703 45.1264 247.445C45.2192 256.186 52.1781 263.176 60.6696 263.056Z" fill="#FFD200"/>
<g opacity="0.08">
<path d="M61.3683 258.277C69.8599 258.157 76.6684 250.974 76.5757 242.232C76.483 233.49 69.524 226.501 61.0325 226.621C52.541 226.74 45.7324 233.924 45.8251 242.666C45.9179 251.407 52.8768 258.396 61.3683 258.277Z" fill="#000001"/>
</g>
<path opacity="0.08" d="M60.6696 263.056C69.1611 262.936 75.9697 255.753 75.877 247.011C75.7842 238.27 68.8253 231.28 60.3338 231.4C51.8422 231.52 45.0337 238.703 45.1264 247.445C45.2192 256.186 52.1781 263.176 60.6696 263.056Z" fill="#000001"/>
<path d="M61.3683 258.277C69.8599 258.157 76.6684 250.974 76.5757 242.232C76.483 233.49 69.524 226.501 61.0325 226.621C52.541 226.74 45.7324 233.924 45.8251 242.666C45.9179 251.407 52.8768 258.396 61.3683 258.277Z" fill="#FFD200"/>
<path d="M61.622 235.362C62.0563 235.356 62.1913 235.509 62.1961 235.959L62.2062 236.911C63.9488 237.141 64.9602 238.021 65.7147 239.568C65.9467 240.032 65.8557 240.285 65.3473 240.526L64.4266 240.968C63.9946 241.188 63.7835 241.094 63.5345 240.63C63.0128 239.627 62.3832 239.147 61.0974 239.165C59.4909 239.188 58.7582 239.686 58.7699 240.794C58.7775 241.513 59.4238 241.954 60.0894 242.079C60.4109 242.153 60.8659 242.223 61.454 242.273C62.5138 242.354 63.0454 242.426 63.9742 242.743C64.45 242.911 64.8097 243.102 65.0962 243.349C65.6295 243.847 66.1138 244.814 66.1271 246.061C66.1496 248.183 64.7854 249.643 62.3484 250.048L62.3591 251.059C62.3639 251.506 62.2321 251.663 61.7978 251.669L60.759 251.684C60.3248 251.69 60.1698 251.537 60.1651 251.09L60.1546 250.097C58.2615 249.869 56.9851 248.896 56.3421 247.152C56.1871 246.728 56.3345 246.433 56.7669 246.252L57.6884 245.888C58.1606 245.706 58.369 245.82 58.5814 246.305C59.0074 247.389 59.8647 247.924 61.1504 247.905C62.8903 247.881 63.7529 247.305 63.7407 246.156C63.7343 245.552 63.4664 245.187 62.9161 244.961C62.3661 244.756 61.8912 244.683 61.0417 244.616C60.0019 244.535 59.4131 244.426 58.5011 244.088C58.0451 243.919 57.6852 243.711 57.3987 243.461C56.8254 242.943 56.3614 242.014 56.3488 240.828C56.3265 238.727 57.5974 237.307 60.015 236.942L60.0049 235.99C60.0002 235.543 60.1489 235.383 60.586 235.377L61.6248 235.362L61.622 235.362Z" fill="white"/>
<path d="M44.1044 173.588C44.1044 173.588 43.0732 177.796 39.8898 179.831C39.8898 179.831 43.1683 179.265 46.0223 183.377C46.0223 183.377 46.8425 179.619 49.4761 177.139C49.4761 177.139 45.4878 177.149 44.1045 173.591L44.1044 173.588Z" fill="#E6E6E6"/>
<path d="M132.687 170.773C132.687 170.773 129.359 173.444 125.639 173.032C125.639 173.032 128.558 174.662 128.342 179.718C128.342 179.718 131.234 177.269 134.788 176.979C134.788 176.979 131.647 174.461 132.687 170.773Z" fill="#E6E6E6"/>
<path d="M123.344 150.457C123.344 150.457 120.766 152.527 117.884 152.205C117.884 152.205 120.146 153.468 119.977 157.386C119.977 157.386 122.217 155.487 124.974 155.264C124.974 155.264 122.54 153.311 123.344 150.457Z" fill="#E6E6E6"/>
<defs>
<clipPath id="clip0_947_1369">
<rect width="320.156" height="328.996" fill="white" transform="matrix(0.999985 -0.00552894 0.00467166 0.999989 51.1783 1.7701)"/>
</clipPath>
</defs>
</svg>
